<?xml version="1.0" encoding="UTF-8"?>
<!--Generator: Apple Native CoreSVG 232.5-->
<!DOCTYPE svg
PUBLIC "-//W3C//DTD SVG 1.1//EN"
       "http://www.w3.org/Graphics/SVG/1.1/DTD/svg11.dtd">
<svg version="1.1" xmlns="http://www.w3.org/2000/svg" xmlns:xlink="http://www.w3.org/1999/xlink" width="20.2832" height="19.9316">
 <g>
  <rect height="19.9316" opacity="0" width="20.2832" x="0" y="0"/>
  <path d="M19.9219 9.96094C19.9219 15.4004 15.4102 19.9219 9.96094 19.9219C4.52148 19.9219 0 15.4004 0 9.96094C0 4.51172 4.51172 0 9.95117 0C15.4004 0 19.9219 4.51172 19.9219 9.96094ZM4.73633 10.7129L4.73633 14.3359C4.73633 14.9609 5.04883 15.2051 5.5957 15.2051L9.20898 15.2051C9.61914 15.2051 9.94141 14.873 9.94141 14.4629C9.94141 14.0527 9.61914 13.7305 9.20898 13.7305L8.70117 13.7305L7.11914 13.8281L9.44336 11.6113C9.74609 11.3184 9.75586 10.8008 9.45312 10.498C9.15039 10.1855 8.64258 10.1758 8.33984 10.5078L6.10352 12.8516L6.21094 11.2207L6.21094 10.7129C6.21094 10.3027 5.87891 9.98047 5.46875 9.98047C5.05859 9.98047 4.73633 10.3027 4.73633 10.7129ZM10.7227 4.73633C10.3125 4.73633 9.98047 5.06836 9.98047 5.47852C9.98047 5.88867 10.3125 6.21094 10.7227 6.21094L11.2305 6.21094L12.8125 6.11328L10.4785 8.33008C10.1758 8.62305 10.166 9.14062 10.4688 9.44336C10.7812 9.75586 11.2793 9.76562 11.5918 9.43359L13.8184 7.08984L13.7207 8.7207L13.7207 9.22852C13.7207 9.63867 14.043 9.96094 14.4531 9.96094C14.8633 9.96094 15.1953 9.63867 15.1953 9.22852L15.1953 5.60547C15.1953 4.98047 14.873 4.73633 14.3262 4.73633Z" fill="#ffffff"/>
 </g>
</svg>
