<?xml version="1.0" encoding="UTF-8"?>
<!--Generator: Apple Native CoreSVG 232.5-->
<!DOCTYPE svg
PUBLIC "-//W3C//DTD SVG 1.1//EN"
       "http://www.w3.org/Graphics/SVG/1.1/DTD/svg11.dtd">
<svg version="1.1" xmlns="http://www.w3.org/2000/svg" xmlns:xlink="http://www.w3.org/1999/xlink" width="20.2832" height="19.9316">
 <g>
  <rect height="19.9316" opacity="0" width="20.2832" x="0" y="0"/>
  <path d="M19.9219 9.9707C19.9219 15.4199 15.4102 19.9316 9.96094 19.9316C4.52148 19.9316 0 15.4199 0 9.9707C0 4.53125 4.51172 0.00976562 9.95117 0.00976562C15.4004 0.00976562 19.9219 4.53125 19.9219 9.9707ZM6.2793 4.99023C5.14648 4.99023 4.58008 5.55664 4.58008 6.66992L4.58008 13.2715C4.58008 14.3945 5.14648 14.9512 6.2793 14.9512L13.6426 14.9512C14.7754 14.9512 15.3418 14.3945 15.3418 13.2715L15.3418 6.66992C15.3418 5.55664 14.7754 4.99023 13.6426 4.99023ZM14.4141 8.22266L14.4141 13.3203C14.4141 13.7988 14.1797 14.0234 13.7109 14.0234L6.20117 14.0234C5.75195 14.0234 5.50781 13.7988 5.50781 13.3203L5.50781 8.22266C5.50781 7.72461 5.77148 7.4707 6.25 7.4707L13.6719 7.4707C14.1406 7.4707 14.4141 7.72461 14.4141 8.22266ZM7.08984 12.0508C6.85547 12.0508 6.77734 12.1094 6.77734 12.334L6.77734 12.7148C6.77734 12.9492 6.85547 13.0176 7.08984 13.0176L7.46094 13.0176C7.69531 13.0176 7.76367 12.9492 7.76367 12.7148L7.76367 12.334C7.76367 12.1094 7.69531 12.0508 7.46094 12.0508ZM8.87695 12.0508C8.64258 12.0508 8.57422 12.1094 8.57422 12.334L8.57422 12.7148C8.57422 12.9492 8.64258 13.0176 8.87695 13.0176L9.24805 13.0176C9.48242 13.0176 9.56055 12.9492 9.56055 12.7148L9.56055 12.334C9.56055 12.1094 9.48242 12.0508 9.24805 12.0508ZM10.6738 12.0508C10.4395 12.0508 10.3711 12.1094 10.3711 12.334L10.3711 12.7148C10.3711 12.9492 10.4395 13.0176 10.6738 13.0176L11.0449 13.0176C11.2793 13.0176 11.3477 12.9492 11.3477 12.7148L11.3477 12.334C11.3477 12.1094 11.2793 12.0508 11.0449 12.0508ZM7.08984 10.2832C6.85547 10.2832 6.77734 10.3516 6.77734 10.5859L6.77734 10.9668C6.77734 11.1914 6.85547 11.25 7.08984 11.25L7.46094 11.25C7.69531 11.25 7.76367 11.1914 7.76367 10.9668L7.76367 10.5859C7.76367 10.3516 7.69531 10.2832 7.46094 10.2832ZM8.87695 10.2832C8.64258 10.2832 8.57422 10.3516 8.57422 10.5859L8.57422 10.9668C8.57422 11.1914 8.64258 11.25 8.87695 11.25L9.24805 11.25C9.48242 11.25 9.56055 11.1914 9.56055 10.9668L9.56055 10.5859C9.56055 10.3516 9.48242 10.2832 9.24805 10.2832ZM10.6738 10.2832C10.4395 10.2832 10.3711 10.3516 10.3711 10.5859L10.3711 10.9668C10.3711 11.1914 10.4395 11.25 10.6738 11.25L11.0449 11.25C11.2793 11.25 11.3477 11.1914 11.3477 10.9668L11.3477 10.5859C11.3477 10.3516 11.2793 10.2832 11.0449 10.2832ZM12.4707 10.2832C12.2266 10.2832 12.1582 10.3516 12.1582 10.5859L12.1582 10.9668C12.1582 11.1914 12.2266 11.25 12.4707 11.25L12.832 11.25C13.0664 11.25 13.1445 11.1914 13.1445 10.9668L13.1445 10.5859C13.1445 10.3516 13.0664 10.2832 12.832 10.2832ZM8.87695 8.51562C8.64258 8.51562 8.57422 8.59375 8.57422 8.81836L8.57422 9.20898C8.57422 9.42383 8.64258 9.49219 8.87695 9.49219L9.24805 9.49219C9.48242 9.49219 9.56055 9.42383 9.56055 9.20898L9.56055 8.81836C9.56055 8.59375 9.48242 8.51562 9.24805 8.51562ZM10.6738 8.51562C10.4395 8.51562 10.3711 8.59375 10.3711 8.81836L10.3711 9.20898C10.3711 9.42383 10.4395 9.49219 10.6738 9.49219L11.0449 9.49219C11.2793 9.49219 11.3477 9.42383 11.3477 9.20898L11.3477 8.81836C11.3477 8.59375 11.2793 8.51562 11.0449 8.51562ZM12.4707 8.51562C12.2266 8.51562 12.1582 8.59375 12.1582 8.81836L12.1582 9.20898C12.1582 9.42383 12.2266 9.49219 12.4707 9.49219L12.832 9.49219C13.0664 9.49219 13.1445 9.42383 13.1445 9.20898L13.1445 8.81836C13.1445 8.59375 13.0664 8.51562 12.832 8.51562Z" fill="#ffffff"/>
 </g>
</svg>
