<?xml version="1.0" encoding="UTF-8"?>
<!--Generator: Apple Native CoreSVG 232.5-->
<!DOCTYPE svg
PUBLIC "-//W3C//DTD SVG 1.1//EN"
       "http://www.w3.org/Graphics/SVG/1.1/DTD/svg11.dtd">
<svg version="1.1" xmlns="http://www.w3.org/2000/svg" xmlns:xlink="http://www.w3.org/1999/xlink" width="20.2832" height="19.9316">
 <g>
  <rect height="19.9316" opacity="0" width="20.2832" x="0" y="0"/>
  <path d="M19.9219 9.96094C19.9219 15.4004 15.4102 19.9219 9.96094 19.9219C4.52148 19.9219 0 15.4004 0 9.96094C0 4.51172 4.51172 0 9.95117 0C15.4004 0 19.9219 4.51172 19.9219 9.96094ZM11.8164 5.47852L11.377 7.53906L9.51172 7.53906L9.89258 5.66406C9.98047 5.25391 9.6875 4.89258 9.27734 4.89258C8.86719 4.89258 8.61328 5.09766 8.53516 5.47852L8.10547 7.53906L7.05078 7.53906C6.65039 7.53906 6.36719 7.83203 6.36719 8.22266C6.36719 8.56445 6.61133 8.81836 6.95312 8.81836L7.83203 8.81836L7.41211 10.8594L6.33789 10.8594C5.9375 10.8594 5.6543 11.1523 5.6543 11.5332C5.6543 11.8848 5.89844 12.1289 6.23047 12.1289L7.13867 12.1289L6.72852 14.1113C6.65039 14.5312 6.95312 14.8828 7.36328 14.8828C7.76367 14.8828 8.00781 14.6777 8.07617 14.3066L8.54492 12.1387L10.4102 12.1387L10 14.1113C9.91211 14.5312 10.2051 14.8828 10.6152 14.8828C11.0254 14.8828 11.2891 14.6777 11.3672 14.3066L11.8164 12.1289L12.8613 12.1289C13.2617 12.1289 13.5449 11.8359 13.5449 11.4551C13.5449 11.1133 13.3008 10.8594 12.9688 10.8594L12.0898 10.8594L12.5195 8.81836L13.5742 8.81836C13.9746 8.81836 14.2578 8.52539 14.2578 8.13477C14.2578 7.79297 14.0137 7.53906 13.6816 7.53906L12.7832 7.53906L13.1836 5.66406C13.252 5.24414 12.959 4.89258 12.5391 4.89258C12.1484 4.89258 11.8945 5.09766 11.8164 5.47852ZM10.7324 10.9766L8.7207 10.9766L9.18945 8.71094L11.2207 8.71094Z" fill="#ffffff"/>
 </g>
</svg>
