<svg width="1143" height="346" viewBox="0 0 1143 346" fill="none" xmlns="http://www.w3.org/2000/svg">
<rect width="1143" height="346" fill="#344E41"/>
<path d="M300.12 188.38C300.12 190.9 299.56 193.233 298.44 195.38C297.32 197.527 295.593 199.487 293.26 201.26C291.02 203.033 287.847 204.433 283.74 205.46C279.633 206.487 274.78 207 269.18 207H242.72C237.4 207 233.293 206.627 230.4 205.88C227.6 205.133 225.827 204.2 225.08 203.08C224.427 201.867 224.333 200.327 224.8 198.46C225.267 196.5 226.013 194.587 227.04 192.72C228.16 190.76 229.187 188.427 230.12 185.72C231.053 183.013 231.52 180.493 231.52 178.16V135.74C231.52 133.407 230.307 129.907 227.88 125.24C225.547 120.573 224.38 117.353 224.38 115.58C224.38 111.473 230.633 109.42 243.14 109.42C248.74 109.42 253.033 109.747 256.02 110.4C259.007 111.053 260.873 111.94 261.62 113.06C262.46 114.087 262.647 115.487 262.18 117.26C261.713 119.033 260.92 120.807 259.8 122.58C258.773 124.26 257.747 126.313 256.72 128.74C255.787 131.167 255.32 133.36 255.32 135.32V178.44C255.32 189.08 257.84 194.4 262.88 194.4C265.587 194.4 268.107 192.207 270.44 187.82C272.773 183.34 274.22 178.02 274.78 171.86C275.247 165.513 277.487 162.433 281.5 162.62C285.42 162.807 289.433 165.56 293.54 170.88C297.927 176.667 300.12 182.5 300.12 188.38ZM370.623 200.42C370.81 201.727 370.203 202.847 368.803 203.78C367.403 204.713 365.583 205.413 363.343 205.88C361.196 206.253 359.236 206.58 357.463 206.86C355.69 207.047 354.243 207.14 353.123 207.14C350.696 207.14 348.176 206.487 345.563 205.18C343.043 203.873 341.643 202.147 341.363 200C339.683 201.96 338.236 203.5 337.023 204.62C335.903 205.74 334.223 206.813 331.983 207.84C329.743 208.867 327.363 209.38 324.843 209.38C317.936 209.38 312.523 207.467 308.603 203.64C304.776 199.72 302.723 194.82 302.443 188.94C302.443 186.327 302.77 183.993 303.423 181.94C304.076 179.793 304.916 178.067 305.943 176.76C306.97 175.453 308.136 174.287 309.443 173.26C310.843 172.233 312.243 171.44 313.643 170.88C315.043 170.32 316.396 169.853 317.703 169.48C319.103 169.013 320.316 168.64 321.343 168.36C322.463 168.08 323.35 167.8 324.003 167.52C324.656 167.24 324.983 166.913 324.983 166.54C324.983 165.793 324.003 165.047 322.043 164.3C320.176 163.46 318.076 162.667 315.743 161.92C313.503 161.08 311.403 159.773 309.443 158C307.576 156.133 306.643 153.94 306.643 151.42C306.643 147.407 309.21 143.907 314.343 140.92C319.57 137.84 325.963 136.3 333.523 136.3C336.323 136.3 339.03 136.487 341.643 136.86C344.35 137.233 347.15 138.027 350.043 139.24C353.03 140.453 355.596 142.04 357.743 144C359.983 145.867 361.803 148.48 363.203 151.84C364.696 155.107 365.443 158.933 365.443 163.32C365.443 166.4 365.443 169.853 365.443 173.68C365.443 177.507 365.443 181.24 365.443 184.88C365.536 188.427 365.536 191.74 365.443 194.82C365.443 196.033 365.676 196.92 366.143 197.48C366.703 198.04 367.263 198.32 367.823 198.32C368.476 198.32 369.083 198.507 369.643 198.88C370.203 199.16 370.53 199.673 370.623 200.42ZM341.363 188.8C341.363 184.693 341.41 177.32 341.503 166.68C341.503 155.013 337.256 149.087 328.763 148.9C326.523 148.807 324.75 149.227 323.443 150.16C322.136 151.093 321.483 152.213 321.483 153.52C321.483 154.547 322.323 155.62 324.003 156.74C325.776 157.767 327.643 158.653 329.603 159.4C331.656 160.147 333.523 161.173 335.203 162.48C336.976 163.787 337.863 165.187 337.863 166.68C337.863 167.427 337.443 168.173 336.603 168.92C335.856 169.667 334.923 170.46 333.803 171.3C332.776 172.047 331.703 172.98 330.583 174.1C329.463 175.22 328.483 176.76 327.643 178.72C326.896 180.68 326.523 182.92 326.523 185.44C326.523 188.147 327.083 190.573 328.203 192.72C329.323 194.773 330.956 195.8 333.103 195.8C335.903 195.8 338.656 193.467 341.363 188.8ZM446.246 180.68C446.246 182.267 446.713 184.227 447.646 186.56C448.673 188.8 449.699 190.807 450.726 192.58C451.846 194.353 452.639 196.173 453.106 198.04C453.573 199.907 453.433 201.493 452.686 202.8C452.033 204.013 450.213 205.04 447.226 205.88C444.239 206.627 440.039 207 434.626 207C430.706 207 427.859 205.88 426.086 203.64C424.313 201.307 423.193 198.087 422.726 193.98C421.699 194.913 420.113 196.313 417.966 198.18C415.913 200.047 414.466 201.353 413.626 202.1C412.786 202.847 411.573 203.827 409.986 205.04C408.493 206.253 407.279 207.093 406.346 207.56C405.413 208.027 404.293 208.447 402.986 208.82C401.679 209.193 400.419 209.38 399.206 209.38C391.926 209.38 386.513 207.233 382.966 202.94C379.419 198.553 377.646 190.9 377.646 179.98V164.58C377.646 163.087 377.273 161.407 376.526 159.54C375.779 157.673 374.939 155.947 374.006 154.36C373.166 152.773 372.326 151.14 371.486 149.46C370.739 147.687 370.413 146.193 370.506 144.98C370.599 143.673 371.159 142.507 372.186 141.48C373.213 140.36 375.126 139.52 377.926 138.96C380.819 138.4 384.599 138.12 389.266 138.12C391.039 138.12 392.579 138.353 393.886 138.82C395.286 139.287 396.406 139.893 397.246 140.64C398.179 141.293 398.926 142.273 399.486 143.58C400.046 144.793 400.466 145.96 400.746 147.08C401.119 148.107 401.353 149.507 401.446 151.28C401.539 152.96 401.586 154.36 401.586 155.48C401.586 156.507 401.539 158 401.446 159.96C401.446 161.92 401.446 163.32 401.446 164.16V168.92C401.446 171.907 401.446 174.053 401.446 175.36C401.539 176.573 401.633 178.253 401.726 180.4C401.819 182.547 402.006 184.087 402.286 185.02C402.659 185.953 403.126 186.98 403.686 188.1C404.246 189.22 404.946 190.013 405.786 190.48C406.719 190.853 407.839 191.04 409.146 191.04C409.706 191.04 410.219 190.993 410.686 190.9C411.246 190.713 411.759 190.48 412.226 190.2C412.693 189.92 413.206 189.547 413.766 189.08C414.326 188.613 414.839 188.147 415.306 187.68C415.773 187.213 416.286 186.653 416.846 186C417.499 185.347 418.059 184.74 418.526 184.18C419.086 183.62 419.739 182.92 420.486 182.08C421.233 181.24 421.886 180.493 422.446 179.84V167.24C422.446 165.187 422.073 163.04 421.326 160.8C420.579 158.467 419.739 156.46 418.806 154.78C417.966 153.007 417.173 151.233 416.426 149.46C415.679 147.687 415.353 146.193 415.446 144.98C415.539 143.767 416.146 142.693 417.266 141.76C418.386 140.733 420.393 139.987 423.286 139.52C426.179 138.96 430.006 138.68 434.766 138.68C440.086 138.68 444.193 139.053 447.086 139.8C449.979 140.547 451.753 141.527 452.406 142.74C453.153 143.86 453.293 145.4 452.826 147.36C452.453 149.227 451.706 151.14 450.586 153.1C449.559 154.967 448.579 157.253 447.646 159.96C446.713 162.667 446.246 165.187 446.246 167.52V180.68ZM537.689 180.68C537.689 182.267 538.156 184.227 539.089 186.56C540.116 188.8 541.142 190.807 542.169 192.58C543.289 194.353 544.082 196.173 544.549 198.04C545.016 199.907 544.876 201.493 544.129 202.8C543.476 204.013 541.656 205.04 538.669 205.88C535.682 206.627 531.482 207 526.069 207C524.482 207 523.036 206.86 521.729 206.58C520.516 206.207 519.489 205.693 518.649 205.04C517.809 204.293 517.062 203.547 516.409 202.8C515.849 201.96 515.382 200.933 515.009 199.72C514.636 198.507 514.356 197.387 514.169 196.36C513.982 195.333 513.842 194.073 513.749 192.58C513.749 190.993 513.749 189.687 513.749 188.66C513.749 187.633 513.749 186.327 513.749 184.74C513.842 183.06 513.889 181.8 513.889 180.96V176.2C513.889 169.48 512.956 164.207 511.089 160.38C509.222 156.553 506.796 154.64 503.809 154.64C501.756 154.64 499.282 155.76 496.389 158C493.496 160.147 491.069 162.573 489.109 165.28V177.88C489.109 180.213 489.576 182.733 490.509 185.44C491.536 188.147 492.562 190.48 493.589 192.44C494.709 194.4 495.456 196.36 495.829 198.32C496.296 200.28 496.109 201.867 495.269 203.08C494.522 204.2 492.609 205.133 489.529 205.88C486.542 206.627 482.296 207 476.789 207C471.469 207 467.362 206.627 464.469 205.88C461.576 205.133 459.756 204.153 459.009 202.94C458.356 201.727 458.216 200.14 458.589 198.18C459.056 196.22 459.802 194.26 460.829 192.3C461.949 190.34 462.976 188.007 463.909 185.3C464.842 182.5 465.309 179.933 465.309 177.6V164.58C465.309 162.9 464.796 160.94 463.769 158.7C462.836 156.46 461.809 154.5 460.689 152.82C459.662 151.047 458.916 149.273 458.449 147.5C457.982 145.633 458.076 144.093 458.729 142.88C459.476 141.667 461.342 140.687 464.329 139.94C467.316 139.1 471.516 138.68 476.929 138.68C480.849 138.68 483.696 139.753 485.469 141.9C487.242 144.047 488.362 147.127 488.829 151.14C500.122 141.153 509.176 136.207 515.989 136.3C522.616 136.393 527.889 139.893 531.809 146.8C535.729 153.613 537.689 162.807 537.689 174.38V180.68ZM603.313 194.26C604.153 193.7 604.9 193.327 605.553 193.14C606.206 192.953 606.673 192.953 606.953 193.14C607.326 193.233 607.56 193.467 607.653 193.84C607.746 194.12 607.7 194.493 607.513 194.96C607.42 195.427 607.186 195.94 606.813 196.5C601.306 205.087 592.813 209.38 581.333 209.38C571.626 209.38 563.46 205.833 556.833 198.74C550.3 191.553 547.033 182.453 547.033 171.44C547.033 165.467 548.386 159.82 551.093 154.5C553.893 149.087 557.86 144.7 562.993 141.34C568.126 137.98 573.82 136.3 580.073 136.3C584.74 136.3 588.846 136.907 592.393 138.12C595.94 139.333 598.693 140.92 600.653 142.88C602.613 144.84 604.106 146.847 605.133 148.9C606.16 150.953 606.766 153.007 606.953 155.06C607.7 162.62 605.133 166.633 599.253 167.1C595.706 167.473 593.046 166.68 591.273 164.72C589.5 162.76 588.613 160.567 588.613 158.14C588.613 157.673 588.66 156.693 588.753 155.2C588.94 153.707 588.986 152.54 588.893 151.7C588.893 150.767 588.753 149.74 588.473 148.62C588.286 147.407 587.773 146.52 586.933 145.96C586.093 145.4 584.973 145.12 583.573 145.12C581.333 145.12 579.373 145.82 577.693 147.22C576.013 148.527 574.66 150.347 573.633 152.68C572.7 155.013 572 157.58 571.533 160.38C571.066 163.087 570.833 165.887 570.833 168.78C570.833 176.433 572.746 183.06 576.573 188.66C580.493 194.167 585.626 196.92 591.973 196.92C596.36 196.92 600.14 196.033 603.313 194.26ZM690.791 180.96C690.791 182.64 691.258 184.647 692.191 186.98C693.218 189.22 694.244 191.227 695.271 193C696.391 194.773 697.184 196.593 697.651 198.46C698.118 200.327 697.978 201.913 697.231 203.22C696.578 204.433 694.758 205.46 691.771 206.3C688.784 207.047 684.584 207.42 679.171 207.42C677.398 207.42 675.811 207.187 674.411 206.72C673.104 206.253 671.984 205.693 671.051 205.04C670.211 204.293 669.511 203.313 668.951 202.1C668.391 200.793 667.971 199.627 667.691 198.6C667.411 197.48 667.178 196.08 666.991 194.4C666.898 192.627 666.851 191.227 666.851 190.2C666.851 189.08 666.851 187.54 666.851 185.58C666.944 183.62 666.991 182.22 666.991 181.38V174.38C666.991 170.087 666.571 166.493 665.731 163.6C664.984 160.613 663.864 158.42 662.371 157.02C660.971 155.527 659.338 154.733 657.471 154.64C656.071 154.547 654.391 155.06 652.431 156.18C650.564 157.3 648.698 158.7 646.831 160.38C645.058 162.06 643.518 163.833 642.211 165.7V178.3C642.211 180.633 642.678 183.153 643.611 185.86C644.638 188.567 645.664 190.853 646.691 192.72C647.718 194.587 648.464 196.5 648.931 198.46C649.398 200.327 649.211 201.82 648.371 202.94C647.624 204.06 645.711 204.993 642.631 205.74C639.644 206.487 635.398 206.86 629.891 206.86C624.571 206.86 620.464 206.487 617.571 205.74C614.678 204.993 612.858 204.06 612.111 202.94C611.458 201.727 611.318 200.187 611.691 198.32C612.158 196.36 612.904 194.447 613.931 192.58C615.051 190.62 616.078 188.287 617.011 185.58C617.944 182.873 618.411 180.353 618.411 178.02V135.88C618.411 134.2 617.898 132.24 616.871 130C615.938 127.667 614.911 125.613 613.791 123.84C612.764 122.067 612.018 120.247 611.551 118.38C611.084 116.513 611.178 114.973 611.831 113.76C612.578 112.453 614.444 111.427 617.431 110.68C620.418 109.84 624.618 109.42 630.031 109.42C632.084 109.42 633.811 109.747 635.211 110.4C636.704 110.96 637.871 111.893 638.711 113.2C639.644 114.507 640.344 115.767 640.811 116.98C641.371 118.193 641.744 119.92 641.931 122.16C642.118 124.307 642.211 126.033 642.211 127.34C642.304 128.553 642.304 130.327 642.211 132.66C642.211 133.967 642.211 134.9 642.211 135.46V151.28C653.598 141.293 662.418 136.3 668.671 136.3C672.031 136.3 675.064 137.093 677.771 138.68C680.478 140.267 682.811 142.6 684.771 145.68C686.731 148.667 688.224 152.447 689.251 157.02C690.278 161.593 690.791 166.773 690.791 172.56V180.96ZM733.028 164.44C733.028 164.44 732.888 164.487 732.608 164.58C732.422 164.673 732.328 164.86 732.328 165.14V180.82C732.328 182.967 733.495 186.28 735.828 190.76C738.255 195.24 739.468 198.367 739.468 200.14C739.468 202.473 738.022 204.2 735.128 205.32C732.235 206.44 727.242 207 720.148 207C716.322 207 712.915 206.673 709.928 206.02C706.942 205.273 704.748 204.387 703.348 203.36C702.042 202.333 701.388 201.26 701.388 200.14C701.388 198.46 702.555 195.333 704.888 190.76C707.315 186.187 708.528 182.733 708.528 180.4V138.26C708.528 134.807 707.362 130.513 705.028 125.38C702.788 120.153 701.668 116.747 701.668 115.16C701.668 111.427 707.688 109.513 719.728 109.42H741.288C747.075 109.42 752.302 110.447 756.968 112.5C761.728 114.553 765.368 117.213 767.888 120.48C770.408 123.653 772.322 127.2 773.628 131.12C774.935 135.04 775.075 138.96 774.048 142.88C773.115 146.707 771.482 150.253 769.148 153.52C766.815 156.787 763.268 159.447 758.508 161.5C753.748 163.46 748.242 164.44 741.988 164.44H733.028ZM732.328 147.22C732.328 148.62 732.468 149.693 732.748 150.44C733.028 151.093 733.308 151.513 733.588 151.7C733.962 151.793 734.428 151.84 734.988 151.84H741.288C744.368 151.84 746.702 150.393 748.288 147.5C749.968 144.513 750.808 141.013 750.808 137C750.715 134.293 750.342 131.867 749.688 129.72C749.035 127.573 747.868 125.753 746.188 124.26C744.602 122.767 742.595 122.02 740.168 122.02C738.488 122.02 737.042 122.3 735.828 122.86C734.708 123.42 733.822 124.26 733.168 125.38C732.608 126.407 732.328 127.667 732.328 129.16V147.22ZM843.26 200.42C843.447 201.727 842.84 202.847 841.44 203.78C840.04 204.713 838.22 205.413 835.98 205.88C833.833 206.253 831.873 206.58 830.1 206.86C828.327 207.047 826.88 207.14 825.76 207.14C823.333 207.14 820.813 206.487 818.2 205.18C815.68 203.873 814.28 202.147 814 200C812.32 201.96 810.873 203.5 809.66 204.62C808.54 205.74 806.86 206.813 804.62 207.84C802.38 208.867 800 209.38 797.48 209.38C790.573 209.38 785.16 207.467 781.24 203.64C777.413 199.72 775.36 194.82 775.08 188.94C775.08 186.327 775.407 183.993 776.06 181.94C776.713 179.793 777.553 178.067 778.58 176.76C779.607 175.453 780.773 174.287 782.08 173.26C783.48 172.233 784.88 171.44 786.28 170.88C787.68 170.32 789.033 169.853 790.34 169.48C791.74 169.013 792.953 168.64 793.98 168.36C795.1 168.08 795.987 167.8 796.64 167.52C797.293 167.24 797.62 166.913 797.62 166.54C797.62 165.793 796.64 165.047 794.68 164.3C792.813 163.46 790.713 162.667 788.38 161.92C786.14 161.08 784.04 159.773 782.08 158C780.213 156.133 779.28 153.94 779.28 151.42C779.28 147.407 781.847 143.907 786.98 140.92C792.207 137.84 798.6 136.3 806.16 136.3C808.96 136.3 811.667 136.487 814.28 136.86C816.987 137.233 819.787 138.027 822.68 139.24C825.667 140.453 828.233 142.04 830.38 144C832.62 145.867 834.44 148.48 835.84 151.84C837.333 155.107 838.08 158.933 838.08 163.32C838.08 166.4 838.08 169.853 838.08 173.68C838.08 177.507 838.08 181.24 838.08 184.88C838.173 188.427 838.173 191.74 838.08 194.82C838.08 196.033 838.313 196.92 838.78 197.48C839.34 198.04 839.9 198.32 840.46 198.32C841.113 198.32 841.72 198.507 842.28 198.88C842.84 199.16 843.167 199.673 843.26 200.42ZM814 188.8C814 184.693 814.047 177.32 814.14 166.68C814.14 155.013 809.893 149.087 801.4 148.9C799.16 148.807 797.387 149.227 796.08 150.16C794.773 151.093 794.12 152.213 794.12 153.52C794.12 154.547 794.96 155.62 796.64 156.74C798.413 157.767 800.28 158.653 802.24 159.4C804.293 160.147 806.16 161.173 807.84 162.48C809.613 163.787 810.5 165.187 810.5 166.68C810.5 167.427 810.08 168.173 809.24 168.92C808.493 169.667 807.56 170.46 806.44 171.3C805.413 172.047 804.34 172.98 803.22 174.1C802.1 175.22 801.12 176.76 800.28 178.72C799.533 180.68 799.16 182.92 799.16 185.44C799.16 188.147 799.72 190.573 800.84 192.72C801.96 194.773 803.593 195.8 805.74 195.8C808.54 195.8 811.293 193.467 814 188.8ZM918.407 200.42C918.594 201.633 917.987 202.753 916.587 203.78C915.187 204.713 913.367 205.413 911.127 205.88C908.98 206.253 907.02 206.533 905.247 206.72C903.474 206.907 902.027 207 900.907 207C899.32 207 897.5 206.673 895.447 206.02C893.487 205.273 891.947 204.34 890.827 203.22C889.614 204.9 887.654 206.347 884.947 207.56C882.334 208.773 879.674 209.38 876.967 209.38C872.58 209.38 868.614 208.633 865.067 207.14C861.614 205.74 858.767 203.827 856.527 201.4C854.287 198.973 852.42 196.127 850.927 192.86C849.434 189.593 848.36 186.28 847.707 182.92C847.147 179.56 846.867 176.06 846.867 172.42C846.867 166.633 847.8 161.033 849.667 155.62C851.627 150.207 854.707 145.633 858.907 141.9C863.107 138.167 867.96 136.3 873.467 136.3C875.24 136.3 876.967 136.673 878.647 137.42C880.42 138.073 881.867 138.913 882.987 139.94C884.2 140.873 885.274 141.853 886.207 142.88C887.14 143.813 887.84 144.607 888.307 145.26L889.007 146.24V135.6C889.007 134.2 888.634 132.613 887.887 130.84C887.14 128.973 886.3 127.247 885.367 125.66C884.527 124.073 883.734 122.44 882.987 120.76C882.24 119.08 881.914 117.633 882.007 116.42C882.1 115.113 882.66 113.947 883.687 112.92C884.807 111.8 886.814 110.96 889.707 110.4C892.6 109.84 896.427 109.56 901.187 109.56C904.734 109.56 907.534 111.753 909.587 116.14C911.734 120.527 912.807 127.153 912.807 136.02V194.82C912.807 196.033 913.087 196.92 913.647 197.48C914.207 197.947 914.814 198.18 915.467 198.18C916.12 198.18 916.727 198.367 917.287 198.74C917.94 199.02 918.314 199.58 918.407 200.42ZM882.147 198.74C884.48 198.74 886.207 197.573 887.327 195.24C888.54 192.907 889.147 189.967 889.147 186.42C889.147 185.86 889.1 182.687 889.007 176.9C889.007 171.113 889.007 166.587 889.007 163.32C889.007 160.333 888.494 157.673 887.467 155.34C886.534 153.007 885.367 151.327 883.967 150.3C882.66 149.273 881.307 148.76 879.907 148.76C873.747 148.76 870.667 156.787 870.667 172.84C870.667 176.293 870.807 179.373 871.087 182.08C871.367 184.787 871.88 187.493 872.627 190.2C873.374 192.907 874.54 195.007 876.127 196.5C877.714 197.993 879.72 198.74 882.147 198.74Z" fill="#DAD7CD"/>
<path d="M1075.48 80.6721C1075.89 75.6166 1078.32 73.7362 1082.94 73.8133C1088.71 73.9058 1088.99 78.4372 1089.26 82.0131C1089.53 85.4656 1087.08 87.7775 1083.1 87.5309C1078.57 87.2534 1075.39 84.2326 1075.48 80.6721Z" fill="#DAD7CD"/>
<path d="M1086.99 55.3941C1082.82 54.9471 1078.06 54.8855 1077.15 49.3676C1076.81 47.3331 1077.7 43.6956 1079.04 43.0944C1081.49 42.0155 1085.87 41.4144 1087.38 42.8324C1091 46.2232 1090.86 50.8934 1086.99 55.3941Z" fill="#DAD7CD"/>
<path d="M1062.63 83.4607C1061.5 84.4625 1059.82 87.0519 1057.6 87.653C1054.34 88.547 1048.88 82.9058 1049 79.3762C1049.14 75.4459 1051.76 73.7042 1055.31 73.4113C1059.25 73.0877 1062.5 77.0026 1062.63 83.4607Z" fill="#DAD7CD"/>
<path d="M1054.38 56.5961C1051.58 52.9278 1047.94 49.3982 1051.16 45.0209C1052.55 43.1405 1056.48 42.0462 1058.97 42.4315C1060.52 42.6781 1062.35 46.3002 1062.56 48.5505C1063.07 53.7293 1058.96 55.2706 1054.38 56.5807V56.5961Z" fill="#DAD7CD"/>
</svg>
