<svg width="2907" height="2324" viewBox="0 0 2907 2324" fill="none" xmlns="http://www.w3.org/2000/svg">
<rect width="2907" height="2324" fill="white"/>
<path d="M2338.14 338V315.28H2341.5V336.72L2339.45 334.832H2352.34V338H2338.14ZM2363.28 338V320.976H2366.54V338H2363.28ZM2356.62 338V335.28H2372.24V338H2356.62ZM2356.94 323.696V320.976H2366.25V323.696H2356.94ZM2363.08 318.512V315.152H2366.41V318.512H2363.08ZM2380.96 338L2374.82 320.976H2378.3L2382.98 334.576L2387.65 320.976H2391.14L2384.99 338H2380.96ZM2401.65 338V320.976H2404.91V338H2401.65ZM2394.99 338V335.28H2410.61V338H2394.99ZM2395.31 323.696V320.976H2404.63V323.696H2395.31ZM2401.46 318.512V315.152H2404.79V318.512H2401.46ZM2414.31 338V320.976H2417.29L2417.38 325.424L2417.03 325.168C2417.24 324.123 2417.62 323.269 2418.15 322.608C2418.7 321.925 2419.38 321.424 2420.17 321.104C2420.96 320.763 2421.8 320.592 2422.69 320.592C2423.97 320.592 2425.03 320.88 2425.86 321.456C2426.69 322.011 2427.32 322.779 2427.75 323.76C2428.18 324.72 2428.39 325.808 2428.39 327.024V338H2425.16V327.856C2425.16 326.384 2424.87 325.275 2424.29 324.528C2423.74 323.781 2422.9 323.408 2421.77 323.408C2420.98 323.408 2420.26 323.579 2419.62 323.92C2419 324.261 2418.5 324.773 2418.12 325.456C2417.73 326.117 2417.54 326.939 2417.54 327.92V338H2414.31ZM2440.44 343.184C2439.16 343.184 2438.02 342.981 2437.02 342.576C2436.01 342.171 2435.18 341.595 2434.52 340.848C2433.88 340.101 2433.43 339.237 2433.18 338.256L2436.57 338.032C2436.8 338.736 2437.22 339.291 2437.82 339.696C2438.41 340.101 2439.29 340.304 2440.44 340.304C2441.87 340.304 2442.96 340.005 2443.71 339.408C2444.47 338.811 2444.86 337.925 2444.86 336.752V334.256C2444.45 335.131 2443.81 335.824 2442.94 336.336C2442.08 336.848 2441.09 337.104 2439.96 337.104C2438.55 337.104 2437.29 336.752 2436.19 336.048C2435.08 335.344 2434.21 334.384 2433.59 333.168C2432.97 331.931 2432.67 330.512 2432.67 328.912C2432.67 327.248 2432.96 325.797 2433.56 324.56C2434.18 323.323 2435.03 322.352 2436.12 321.648C2437.21 320.944 2438.45 320.592 2439.83 320.592C2441.03 320.592 2442.07 320.869 2442.97 321.424C2443.89 321.957 2444.55 322.693 2444.95 323.632L2444.99 320.976H2448.09V336.528C2448.09 337.957 2447.78 339.163 2447.16 340.144C2446.54 341.147 2445.66 341.904 2444.51 342.416C2443.37 342.928 2442.02 343.184 2440.44 343.184ZM2440.41 334.224C2441.73 334.224 2442.8 333.755 2443.61 332.816C2444.42 331.877 2444.84 330.565 2444.86 328.88C2444.88 327.728 2444.7 326.757 2444.31 325.968C2443.95 325.157 2443.43 324.539 2442.75 324.112C2442.08 323.685 2441.31 323.472 2440.41 323.472C2439.02 323.472 2437.95 323.952 2437.18 324.912C2436.43 325.851 2436.06 327.173 2436.06 328.88C2436.06 330.565 2436.44 331.877 2437.21 332.816C2438 333.755 2439.07 334.224 2440.41 334.224ZM2476.61 338.384C2475.54 338.384 2474.58 338.192 2473.73 337.808C2472.88 337.424 2472.19 336.88 2471.68 336.176C2471.19 335.472 2470.94 334.651 2470.94 333.712C2470.94 332.261 2471.38 331.131 2472.26 330.32C2473.15 329.509 2474.5 328.933 2476.29 328.592L2481.79 327.44C2481.79 326.117 2481.5 325.125 2480.93 324.464C2480.35 323.803 2479.49 323.472 2478.34 323.472C2477.27 323.472 2476.44 323.717 2475.84 324.208C2475.24 324.699 2474.84 325.381 2474.62 326.256L2471.23 326.032C2471.55 324.411 2472.33 323.099 2473.57 322.096C2474.81 321.093 2476.4 320.592 2478.34 320.592C2480.51 320.592 2482.17 321.211 2483.3 322.448C2484.45 323.685 2485.02 325.392 2485.02 327.568V334.288C2485.02 334.672 2485.11 334.949 2485.28 335.12C2485.45 335.269 2485.7 335.344 2486.02 335.344H2486.98V338C2486.85 338.021 2486.64 338.043 2486.34 338.064C2486.06 338.085 2485.78 338.096 2485.5 338.096C2484.74 338.096 2484.09 337.968 2483.55 337.712C2483.02 337.456 2482.61 337.061 2482.34 336.528C2482.08 335.973 2481.93 335.28 2481.89 334.448H2482.4C2482.27 335.195 2481.94 335.867 2481.41 336.464C2480.88 337.061 2480.19 337.531 2479.36 337.872C2478.53 338.213 2477.61 338.384 2476.61 338.384ZM2477.09 335.728C2478.11 335.728 2478.98 335.547 2479.68 335.184C2480.38 334.821 2480.91 334.309 2481.25 333.648C2481.61 332.987 2481.79 332.208 2481.79 331.312V330L2477.06 330.96C2476.03 331.152 2475.32 331.451 2474.91 331.856C2474.51 332.261 2474.3 332.795 2474.3 333.456C2474.3 334.16 2474.55 334.715 2475.04 335.12C2475.53 335.525 2476.21 335.728 2477.09 335.728ZM2500.53 338C2498.8 338 2497.51 337.605 2496.66 336.816C2495.83 336.005 2495.41 334.768 2495.41 333.104V316.976H2498.64V332.944C2498.64 333.733 2498.83 334.32 2499.19 334.704C2499.57 335.088 2500.14 335.28 2500.88 335.28H2505.27V338H2500.53ZM2490.04 323.696V320.976H2505.27V323.696H2490.04ZM2535.61 338V321.808H2529.79V318.96H2532.67C2533.5 318.96 2534.17 318.843 2534.68 318.608C2535.2 318.352 2535.57 317.957 2535.8 317.424C2536.04 316.891 2536.16 316.176 2536.16 315.28H2538.97V338H2535.61ZM2528.67 338V334.832H2544.28V338H2528.67ZM2547.6 338C2547.6 336.315 2547.84 334.811 2548.33 333.488C2548.83 332.165 2549.69 330.928 2550.93 329.776C2552.19 328.603 2553.92 327.429 2556.14 326.256C2557.1 325.765 2557.88 325.296 2558.48 324.848C2559.08 324.4 2559.51 323.92 2559.79 323.408C2560.07 322.896 2560.21 322.277 2560.21 321.552C2560.21 320.805 2560.06 320.165 2559.76 319.632C2559.46 319.099 2559.01 318.683 2558.41 318.384C2557.82 318.064 2557.07 317.904 2556.17 317.904C2554.72 317.904 2553.58 318.288 2552.75 319.056C2551.94 319.824 2551.43 320.923 2551.21 322.352L2547.73 322.128C2547.96 319.888 2548.8 318.107 2550.25 316.784C2551.71 315.44 2553.68 314.768 2556.17 314.768C2557.8 314.768 2559.16 315.045 2560.27 315.6C2561.4 316.155 2562.25 316.933 2562.83 317.936C2563.41 318.939 2563.69 320.101 2563.69 321.424C2563.69 322.597 2563.5 323.611 2563.12 324.464C2562.73 325.317 2562.09 326.107 2561.2 326.832C2560.3 327.557 2559.08 328.336 2557.52 329.168C2556.22 329.872 2555.13 330.565 2554.25 331.248C2553.4 331.909 2552.75 332.549 2552.3 333.168C2551.88 333.765 2551.64 334.32 2551.6 334.832H2563.73V338H2547.6ZM2571.14 338C2571.14 335.675 2571.45 333.381 2572.07 331.12C2572.71 328.837 2573.62 326.629 2574.82 324.496C2576.01 322.363 2577.43 320.347 2579.07 318.448H2567.11V315.28H2582.59V318.224C2581.21 319.803 2580.01 321.371 2579.01 322.928C2578.01 324.464 2577.19 326.021 2576.55 327.6C2575.91 329.179 2575.44 330.832 2575.14 332.56C2574.84 334.267 2574.69 336.08 2574.69 338H2571.14ZM2591.86 338V333.776H2596.21V338H2591.86ZM2607.59 334.608L2616.3 318.512L2618.86 318.672L2610.15 334.768L2607.59 334.608ZM2613.23 338.512C2611.56 338.512 2610.12 338.032 2608.91 337.072C2607.69 336.112 2606.76 334.747 2606.12 332.976C2605.48 331.205 2605.16 329.104 2605.16 326.672C2605.16 324.219 2605.48 322.107 2606.12 320.336C2606.76 318.565 2607.69 317.2 2608.91 316.24C2610.12 315.259 2611.56 314.768 2613.23 314.768C2614.91 314.768 2616.35 315.259 2617.55 316.24C2618.76 317.2 2619.69 318.565 2620.33 320.336C2620.97 322.107 2621.29 324.219 2621.29 326.672C2621.29 329.104 2620.97 331.205 2620.33 332.976C2619.69 334.747 2618.76 336.112 2617.55 337.072C2616.35 338.032 2614.91 338.512 2613.23 338.512ZM2613.23 335.376C2614.19 335.376 2615 335.035 2615.66 334.352C2616.34 333.648 2616.86 332.645 2617.23 331.344C2617.61 330.043 2617.8 328.485 2617.8 326.672C2617.8 324.816 2617.61 323.237 2617.23 321.936C2616.86 320.635 2616.34 319.643 2615.66 318.96C2615 318.256 2614.19 317.904 2613.23 317.904C2612.29 317.904 2611.48 318.256 2610.79 318.96C2610.11 319.643 2609.58 320.635 2609.19 321.936C2608.83 323.237 2608.65 324.816 2608.65 326.672C2608.65 328.485 2608.83 330.043 2609.19 331.344C2609.58 332.645 2610.11 333.648 2610.79 334.352C2611.48 335.035 2612.29 335.376 2613.23 335.376ZM2630.24 338V333.776H2634.59V338H2630.24ZM2645.97 334.608L2654.67 318.512L2657.23 318.672L2648.53 334.768L2645.97 334.608ZM2651.6 338.512C2649.94 338.512 2648.5 338.032 2647.28 337.072C2646.06 336.112 2645.14 334.747 2644.5 332.976C2643.86 331.205 2643.54 329.104 2643.54 326.672C2643.54 324.219 2643.86 322.107 2644.5 320.336C2645.14 318.565 2646.06 317.2 2647.28 316.24C2648.5 315.259 2649.94 314.768 2651.6 314.768C2653.29 314.768 2654.73 315.259 2655.92 316.24C2657.14 317.2 2658.06 318.565 2658.7 320.336C2659.34 322.107 2659.66 324.219 2659.66 326.672C2659.66 329.104 2659.34 331.205 2658.7 332.976C2658.06 334.747 2657.14 336.112 2655.92 337.072C2654.73 338.032 2653.29 338.512 2651.6 338.512ZM2651.6 335.376C2652.56 335.376 2653.37 335.035 2654.03 334.352C2654.71 333.648 2655.24 332.645 2655.6 331.344C2655.98 330.043 2656.18 328.485 2656.18 326.672C2656.18 324.816 2655.98 323.237 2655.6 321.936C2655.24 320.635 2654.71 319.643 2654.03 318.96C2653.37 318.256 2652.56 317.904 2651.6 317.904C2650.66 317.904 2649.85 318.256 2649.17 318.96C2648.49 319.643 2647.95 320.635 2647.57 321.936C2647.21 323.237 2647.02 324.816 2647.02 326.672C2647.02 328.485 2647.21 330.043 2647.57 331.344C2647.95 332.645 2648.49 333.648 2649.17 334.352C2649.85 335.035 2650.66 335.376 2651.6 335.376ZM2668.61 338V333.776H2672.96V338H2668.61ZM2689.11 338V321.808H2683.29V318.96H2686.17C2687 318.96 2687.67 318.843 2688.18 318.608C2688.7 318.352 2689.07 317.957 2689.3 317.424C2689.54 316.891 2689.66 316.176 2689.66 315.28H2692.47V338H2689.11ZM2682.17 338V334.832H2697.78V338H2682.17ZM2706.99 338V333.776H2711.34V338H2706.99ZM2706.99 325.872V321.648H2711.34V325.872H2706.99ZM2728.29 338.512C2726.77 338.512 2725.45 338.245 2724.32 337.712C2723.21 337.157 2722.32 336.4 2721.66 335.44C2721.02 334.459 2720.65 333.339 2720.54 332.08L2724.03 331.856C2724.18 333.029 2724.63 333.915 2725.37 334.512C2726.12 335.088 2727.09 335.376 2728.29 335.376C2729.63 335.376 2730.7 334.971 2731.49 334.16C2732.28 333.328 2732.67 332.155 2732.67 330.64C2732.67 329.659 2732.49 328.805 2732.13 328.08C2731.78 327.355 2731.29 326.811 2730.65 326.448C2730.01 326.064 2729.25 325.872 2728.35 325.872C2727.52 325.872 2726.73 326.085 2725.98 326.512C2725.26 326.917 2724.74 327.483 2724.45 328.208L2720.89 328.144L2722.37 315.28H2734.88V318.448H2725.28L2724.35 326.288L2723.68 325.808C2724.02 325.168 2724.46 324.635 2724.99 324.208C2725.54 323.781 2726.15 323.461 2726.81 323.248C2727.5 323.013 2728.18 322.896 2728.86 322.896C2730.33 322.896 2731.61 323.227 2732.7 323.888C2733.81 324.549 2734.66 325.467 2735.26 326.64C2735.86 327.813 2736.16 329.157 2736.16 330.672C2736.16 332.187 2735.83 333.541 2735.17 334.736C2734.5 335.931 2733.58 336.859 2732.38 337.52C2731.21 338.181 2729.84 338.512 2728.29 338.512ZM2747.47 338.512C2745.96 338.512 2744.64 338.245 2743.51 337.712C2742.4 337.157 2741.51 336.4 2740.85 335.44C2740.21 334.459 2739.84 333.339 2739.73 332.08L2743.22 331.856C2743.37 333.029 2743.81 333.915 2744.56 334.512C2745.31 335.088 2746.28 335.376 2747.47 335.376C2748.82 335.376 2749.88 334.971 2750.67 334.16C2751.46 333.328 2751.86 332.155 2751.86 330.64C2751.86 329.659 2751.68 328.805 2751.31 328.08C2750.97 327.355 2750.48 326.811 2749.84 326.448C2749.2 326.064 2748.43 325.872 2747.54 325.872C2746.71 325.872 2745.92 326.085 2745.17 326.512C2744.44 326.917 2743.93 327.483 2743.63 328.208L2740.08 328.144L2741.55 315.28H2754.07V318.448H2744.47L2743.54 326.288L2742.87 325.808C2743.21 325.168 2743.64 324.635 2744.18 324.208C2744.73 323.781 2745.34 323.461 2746 323.248C2746.68 323.013 2747.37 322.896 2748.05 322.896C2749.52 322.896 2750.8 323.227 2751.89 323.888C2753 324.549 2753.85 325.467 2754.45 326.64C2755.05 327.813 2755.35 329.157 2755.35 330.672C2755.35 332.187 2755.01 333.541 2754.35 334.736C2753.69 335.931 2752.76 336.859 2751.57 337.52C2750.4 338.181 2749.03 338.512 2747.47 338.512ZM2761.09 334.608L2769.8 318.512L2772.36 318.672L2763.65 334.768L2761.09 334.608ZM2766.73 338.512C2765.06 338.512 2763.62 338.032 2762.41 337.072C2761.19 336.112 2760.26 334.747 2759.62 332.976C2758.98 331.205 2758.66 329.104 2758.66 326.672C2758.66 324.219 2758.98 322.107 2759.62 320.336C2760.26 318.565 2761.19 317.2 2762.41 316.24C2763.62 315.259 2765.06 314.768 2766.73 314.768C2768.41 314.768 2769.85 315.259 2771.05 316.24C2772.26 317.2 2773.19 318.565 2773.83 320.336C2774.47 322.107 2774.79 324.219 2774.79 326.672C2774.79 329.104 2774.47 331.205 2773.83 332.976C2773.19 334.747 2772.26 336.112 2771.05 337.072C2769.85 338.032 2768.41 338.512 2766.73 338.512ZM2766.73 335.376C2767.69 335.376 2768.5 335.035 2769.16 334.352C2769.84 333.648 2770.36 332.645 2770.73 331.344C2771.11 330.043 2771.3 328.485 2771.3 326.672C2771.3 324.816 2771.11 323.237 2770.73 321.936C2770.36 320.635 2769.84 319.643 2769.16 318.96C2768.5 318.256 2767.69 317.904 2766.73 317.904C2765.79 317.904 2764.98 318.256 2764.29 318.96C2763.61 319.643 2763.08 320.635 2762.69 321.936C2762.33 323.237 2762.15 324.816 2762.15 326.672C2762.15 328.485 2762.33 330.043 2762.69 331.344C2763.08 332.645 2763.61 333.648 2764.29 334.352C2764.98 335.035 2765.79 335.376 2766.73 335.376ZM2780.28 334.608L2788.98 318.512L2791.54 318.672L2782.84 334.768L2780.28 334.608ZM2785.91 338.512C2784.25 338.512 2782.81 338.032 2781.59 337.072C2780.38 336.112 2779.45 334.747 2778.81 332.976C2778.17 331.205 2777.85 329.104 2777.85 326.672C2777.85 324.219 2778.17 322.107 2778.81 320.336C2779.45 318.565 2780.38 317.2 2781.59 316.24C2782.81 315.259 2784.25 314.768 2785.91 314.768C2787.6 314.768 2789.04 315.259 2790.23 316.24C2791.45 317.2 2792.38 318.565 2793.02 320.336C2793.66 322.107 2793.98 324.219 2793.98 326.672C2793.98 329.104 2793.66 331.205 2793.02 332.976C2792.38 334.747 2791.45 336.112 2790.23 337.072C2789.04 338.032 2787.6 338.512 2785.91 338.512ZM2785.91 335.376C2786.87 335.376 2787.68 335.035 2788.34 334.352C2789.03 333.648 2789.55 332.645 2789.91 331.344C2790.3 330.043 2790.49 328.485 2790.49 326.672C2790.49 324.816 2790.3 323.237 2789.91 321.936C2789.55 320.635 2789.03 319.643 2788.34 318.96C2787.68 318.256 2786.87 317.904 2785.91 317.904C2784.97 317.904 2784.16 318.256 2783.48 318.96C2782.8 319.643 2782.26 320.635 2781.88 321.936C2781.52 323.237 2781.34 324.816 2781.34 326.672C2781.34 328.485 2781.52 330.043 2781.88 331.344C2782.26 332.645 2782.8 333.648 2783.48 334.352C2784.16 335.035 2784.97 335.376 2785.91 335.376Z" fill="black"/>
</svg>
