<svg width="2228" height="2324" viewBox="0 0 2228 2324" fill="none" xmlns="http://www.w3.org/2000/svg">
<rect width="2228" height="2324" fill="#060606"/>
<path d="M1128.21 1783V1646.68H1175.25C1197.39 1646.68 1214.42 1652.63 1226.32 1664.54C1238.22 1676.31 1244.18 1693.14 1244.18 1715.03C1244.18 1736.79 1238.29 1753.56 1226.51 1765.34C1214.86 1777.11 1198.16 1783 1176.4 1783H1128.21ZM1157.39 1758.42H1175.25C1188.43 1758.42 1198.16 1754.9 1204.43 1747.86C1210.83 1740.7 1214.03 1729.69 1214.03 1714.84C1214.03 1699.99 1210.83 1689.05 1204.43 1682.01C1198.16 1674.84 1188.43 1671.26 1175.25 1671.26H1157.39V1758.42ZM1295.4 1785.3C1284.64 1785.3 1275.94 1782.87 1269.28 1778.01C1262.63 1773.02 1259.3 1766.1 1259.3 1757.27C1259.3 1748.18 1262.12 1741.21 1267.75 1736.34C1273.51 1731.35 1281.96 1727.7 1293.09 1725.4L1326.31 1718.87C1326.31 1712.22 1324.77 1707.22 1321.7 1703.9C1318.76 1700.44 1314.4 1698.71 1308.64 1698.71C1303.27 1698.71 1299.04 1699.99 1295.97 1702.55C1292.9 1704.98 1290.85 1708.63 1289.83 1713.5L1261.03 1712.15C1262.95 1700.89 1268 1692.38 1276.2 1686.62C1284.52 1680.73 1295.33 1677.78 1308.64 1677.78C1324 1677.78 1335.59 1681.43 1343.4 1688.73C1351.2 1696.02 1355.11 1706.71 1355.11 1720.79V1755.93C1355.11 1758.87 1355.56 1760.86 1356.45 1761.88C1357.48 1762.78 1358.95 1763.22 1360.87 1763.22H1363.75V1783C1362.85 1783.26 1361.38 1783.51 1359.33 1783.77C1357.41 1784.02 1355.43 1784.15 1353.38 1784.15C1349.41 1784.15 1345.64 1783.45 1342.05 1782.04C1338.47 1780.63 1335.59 1778.26 1333.41 1774.94C1331.36 1771.48 1330.34 1766.62 1330.34 1760.34L1332.84 1762.26C1331.56 1766.87 1329.25 1770.9 1325.92 1774.36C1322.72 1777.82 1318.5 1780.5 1313.25 1782.42C1308.13 1784.34 1302.18 1785.3 1295.4 1785.3ZM1302.31 1765.53C1307.04 1765.53 1311.2 1764.63 1314.79 1762.84C1318.37 1760.92 1321.19 1758.17 1323.24 1754.58C1325.28 1751 1326.31 1746.78 1326.31 1741.91V1736.92L1302.88 1741.91C1298.15 1742.81 1294.63 1744.34 1292.32 1746.52C1290.02 1748.57 1288.87 1751.26 1288.87 1754.58C1288.87 1758.04 1290.02 1760.73 1292.32 1762.65C1294.63 1764.57 1297.96 1765.53 1302.31 1765.53ZM1416.61 1783C1405.98 1783 1398.18 1780.57 1393.18 1775.7C1388.19 1770.71 1385.7 1762.84 1385.7 1752.09V1655.9H1414.5V1748.63C1414.5 1753.62 1415.52 1757.02 1417.57 1758.81C1419.74 1760.6 1422.94 1761.5 1427.17 1761.5H1441.57V1783H1416.61ZM1369.18 1701.59V1680.09H1441.57V1701.59H1369.18ZM1490.77 1785.3C1480.02 1785.3 1471.32 1782.87 1464.66 1778.01C1458 1773.02 1454.68 1766.1 1454.68 1757.27C1454.68 1748.18 1457.49 1741.21 1463.12 1736.34C1468.88 1731.35 1477.33 1727.7 1488.47 1725.4L1521.68 1718.87C1521.68 1712.22 1520.15 1707.22 1517.08 1703.9C1514.13 1700.44 1509.78 1698.71 1504.02 1698.71C1498.64 1698.71 1494.42 1699.99 1491.35 1702.55C1488.28 1704.98 1486.23 1708.63 1485.2 1713.5L1456.4 1712.15C1458.32 1700.89 1463.38 1692.38 1471.57 1686.62C1479.89 1680.73 1490.71 1677.78 1504.02 1677.78C1519.38 1677.78 1530.96 1681.43 1538.77 1688.73C1546.58 1696.02 1550.48 1706.71 1550.48 1720.79V1755.93C1550.48 1758.87 1550.93 1760.86 1551.83 1761.88C1552.85 1762.78 1554.32 1763.22 1556.24 1763.22H1559.12V1783C1558.23 1783.26 1556.76 1783.51 1554.71 1783.77C1552.79 1784.02 1550.8 1784.15 1548.76 1784.15C1544.79 1784.15 1541.01 1783.45 1537.43 1782.04C1533.84 1780.63 1530.96 1778.26 1528.79 1774.94C1526.74 1771.48 1525.72 1766.62 1525.72 1760.34L1528.21 1762.26C1526.93 1766.87 1524.63 1770.9 1521.3 1774.36C1518.1 1777.82 1513.88 1780.5 1508.63 1782.42C1503.51 1784.34 1497.56 1785.3 1490.77 1785.3ZM1497.68 1765.53C1502.42 1765.53 1506.58 1764.63 1510.16 1762.84C1513.75 1760.92 1516.56 1758.17 1518.61 1754.58C1520.66 1751 1521.68 1746.78 1521.68 1741.91V1736.92L1498.26 1741.91C1493.52 1742.81 1490 1744.34 1487.7 1746.52C1485.4 1748.57 1484.24 1751.26 1484.24 1754.58C1484.24 1758.04 1485.4 1760.73 1487.7 1762.65C1490 1764.57 1493.33 1765.53 1497.68 1765.53ZM1636.37 1785.3C1629.2 1785.3 1622.93 1783.77 1617.55 1780.7C1612.31 1777.62 1608.21 1773.34 1605.27 1767.83L1604.69 1783H1577.23V1646.68H1606.03V1694.68C1608.72 1689.94 1612.69 1685.98 1617.94 1682.78C1623.19 1679.45 1629.33 1677.78 1636.37 1677.78C1645.07 1677.78 1652.63 1680.02 1659.03 1684.5C1665.43 1688.86 1670.35 1695.06 1673.81 1703.13C1677.39 1711.19 1679.19 1720.66 1679.19 1731.54C1679.19 1742.42 1677.39 1751.9 1673.81 1759.96C1670.35 1768.02 1665.43 1774.3 1659.03 1778.78C1652.63 1783.13 1645.07 1785.3 1636.37 1785.3ZM1628.31 1763.22C1634.71 1763.22 1639.83 1760.47 1643.67 1754.97C1647.63 1749.34 1649.62 1741.53 1649.62 1731.54C1649.62 1721.56 1647.7 1713.82 1643.86 1708.31C1640.02 1702.68 1634.9 1699.86 1628.5 1699.86C1623.76 1699.86 1619.67 1701.14 1616.21 1703.7C1612.88 1706.14 1610.32 1709.72 1608.53 1714.46C1606.87 1719.19 1606.03 1724.89 1606.03 1731.54C1606.03 1738.07 1606.87 1743.7 1608.53 1748.44C1610.32 1753.18 1612.88 1756.82 1616.21 1759.38C1619.67 1761.94 1623.7 1763.22 1628.31 1763.22ZM1729.08 1785.3C1718.33 1785.3 1709.63 1782.87 1702.97 1778.01C1696.32 1773.02 1692.99 1766.1 1692.99 1757.27C1692.99 1748.18 1695.8 1741.21 1701.44 1736.34C1707.2 1731.35 1715.64 1727.7 1726.78 1725.4L1760 1718.87C1760 1712.22 1758.46 1707.22 1755.39 1703.9C1752.44 1700.44 1748.09 1698.71 1742.33 1698.71C1736.96 1698.71 1732.73 1699.99 1729.66 1702.55C1726.59 1704.98 1724.54 1708.63 1723.52 1713.5L1694.72 1712.15C1696.64 1700.89 1701.69 1692.38 1709.88 1686.62C1718.2 1680.73 1729.02 1677.78 1742.33 1677.78C1757.69 1677.78 1769.28 1681.43 1777.08 1688.73C1784.89 1696.02 1788.8 1706.71 1788.8 1720.79V1755.93C1788.8 1758.87 1789.24 1760.86 1790.14 1761.88C1791.16 1762.78 1792.64 1763.22 1794.56 1763.22H1797.44V1783C1796.54 1783.26 1795.07 1783.51 1793.02 1783.77C1791.1 1784.02 1789.12 1784.15 1787.07 1784.15C1783.1 1784.15 1779.32 1783.45 1775.74 1782.04C1772.16 1780.63 1769.28 1778.26 1767.1 1774.94C1765.05 1771.48 1764.03 1766.62 1764.03 1760.34L1766.52 1762.26C1765.24 1766.87 1762.94 1770.9 1759.61 1774.36C1756.41 1777.82 1752.19 1780.5 1746.94 1782.42C1741.82 1784.34 1735.87 1785.3 1729.08 1785.3ZM1736 1765.53C1740.73 1765.53 1744.89 1764.63 1748.48 1762.84C1752.06 1760.92 1754.88 1758.17 1756.92 1754.58C1758.97 1751 1760 1746.78 1760 1741.91V1736.92L1736.57 1741.91C1731.84 1742.81 1728.32 1744.34 1726.01 1746.52C1723.71 1748.57 1722.56 1751.26 1722.56 1754.58C1722.56 1758.04 1723.71 1760.73 1726.01 1762.65C1728.32 1764.57 1731.64 1765.53 1736 1765.53ZM1858.21 1785.3C1847.58 1785.3 1838.69 1783.83 1831.52 1780.89C1824.48 1777.82 1819.04 1773.72 1815.2 1768.6C1811.49 1763.35 1809.38 1757.34 1808.86 1750.55L1838.05 1749.59C1838.94 1754.46 1840.99 1758.23 1844.19 1760.92C1847.39 1763.61 1852.13 1764.95 1858.4 1764.95C1863.52 1764.95 1867.49 1764.12 1870.3 1762.46C1873.25 1760.79 1874.72 1758.23 1874.72 1754.78C1874.72 1752.6 1874.14 1750.81 1872.99 1749.4C1871.97 1747.86 1869.98 1746.58 1867.04 1745.56C1864.1 1744.41 1859.68 1743.38 1853.79 1742.49C1842.91 1740.57 1834.4 1738.33 1828.26 1735.77C1822.11 1733.21 1817.76 1729.88 1815.2 1725.78C1812.64 1721.69 1811.36 1716.7 1811.36 1710.81C1811.36 1700.95 1815.14 1693.02 1822.69 1687C1830.37 1680.86 1841.82 1677.78 1857.06 1677.78C1866.78 1677.78 1874.91 1679.32 1881.44 1682.39C1888.1 1685.46 1893.22 1689.69 1896.8 1695.06C1900.51 1700.31 1902.75 1706.33 1903.52 1713.11L1874.72 1714.26C1874.21 1710.94 1873.18 1708.12 1871.65 1705.82C1870.11 1703.38 1868.06 1701.53 1865.5 1700.25C1863.07 1698.84 1860.13 1698.14 1856.67 1698.14C1851.68 1698.14 1847.78 1699.22 1844.96 1701.4C1842.27 1703.45 1840.93 1706.2 1840.93 1709.66C1840.93 1712.22 1841.5 1714.33 1842.66 1715.99C1843.94 1717.53 1845.98 1718.81 1848.8 1719.83C1851.62 1720.86 1855.39 1721.69 1860.13 1722.33C1871.14 1723.86 1879.84 1726.04 1886.24 1728.86C1892.77 1731.54 1897.38 1734.94 1900.06 1739.03C1902.88 1743.13 1904.29 1748.18 1904.29 1754.2C1904.29 1760.86 1902.37 1766.49 1898.53 1771.1C1894.82 1775.7 1889.5 1779.22 1882.59 1781.66C1875.81 1784.09 1867.68 1785.3 1858.21 1785.3ZM1969.64 1785.3C1959.14 1785.3 1949.99 1783.13 1942.18 1778.78C1934.38 1774.3 1928.36 1768.02 1924.14 1759.96C1919.91 1751.9 1917.8 1742.42 1917.8 1731.54C1917.8 1720.66 1919.91 1711.26 1924.14 1703.32C1928.36 1695.26 1934.31 1688.98 1941.99 1684.5C1949.8 1680.02 1958.95 1677.78 1969.45 1677.78C1979.56 1677.78 1988.39 1680.02 1995.94 1684.5C2003.62 1688.98 2009.51 1695.38 2013.61 1703.7C2017.7 1712.02 2019.75 1721.94 2019.75 1733.46V1739.22H1947.56C1947.94 1747.42 1950.12 1753.5 1954.09 1757.46C1958.18 1761.43 1963.56 1763.42 1970.22 1763.42C1975.08 1763.42 1979.11 1762.39 1982.31 1760.34C1985.64 1758.3 1988.01 1755.16 1989.42 1750.94L2018.41 1752.66C2015.59 1762.9 2009.83 1770.9 2001.13 1776.66C1992.55 1782.42 1982.06 1785.3 1969.64 1785.3ZM1947.56 1721.56H1990.38C1989.99 1714.01 1987.88 1708.38 1984.04 1704.66C1980.33 1700.95 1975.46 1699.1 1969.45 1699.1C1963.43 1699.1 1958.44 1701.08 1954.47 1705.05C1950.63 1708.89 1948.33 1714.39 1947.56 1721.56ZM2082.64 1785.3C2072.02 1785.3 2063.12 1783.83 2055.96 1780.89C2048.92 1777.82 2043.48 1773.72 2039.64 1768.6C2035.92 1763.35 2033.81 1757.34 2033.3 1750.55L2062.48 1749.59C2063.38 1754.46 2065.43 1758.23 2068.63 1760.92C2071.83 1763.61 2076.56 1764.95 2082.84 1764.95C2087.96 1764.95 2091.92 1764.12 2094.74 1762.46C2097.68 1760.79 2099.16 1758.23 2099.16 1754.78C2099.16 1752.6 2098.58 1750.81 2097.43 1749.4C2096.4 1747.86 2094.42 1746.58 2091.48 1745.56C2088.53 1744.41 2084.12 1743.38 2078.23 1742.49C2067.35 1740.57 2058.84 1738.33 2052.69 1735.77C2046.55 1733.21 2042.2 1729.88 2039.64 1725.78C2037.08 1721.69 2035.8 1716.7 2035.8 1710.81C2035.8 1700.95 2039.57 1693.02 2047.12 1687C2054.8 1680.86 2066.26 1677.78 2081.49 1677.78C2091.22 1677.78 2099.35 1679.32 2105.88 1682.39C2112.53 1685.46 2117.65 1689.69 2121.24 1695.06C2124.95 1700.31 2127.19 1706.33 2127.96 1713.11L2099.16 1714.26C2098.64 1710.94 2097.62 1708.12 2096.08 1705.82C2094.55 1703.38 2092.5 1701.53 2089.94 1700.25C2087.51 1698.84 2084.56 1698.14 2081.11 1698.14C2076.12 1698.14 2072.21 1699.22 2069.4 1701.4C2066.71 1703.45 2065.36 1706.2 2065.36 1709.66C2065.36 1712.22 2065.94 1714.33 2067.09 1715.99C2068.37 1717.53 2070.42 1718.81 2073.24 1719.83C2076.05 1720.86 2079.83 1721.69 2084.56 1722.33C2095.57 1723.86 2104.28 1726.04 2110.68 1728.86C2117.2 1731.54 2121.81 1734.94 2124.5 1739.03C2127.32 1743.13 2128.72 1748.18 2128.72 1754.2C2128.72 1760.86 2126.8 1766.49 2122.96 1771.1C2119.25 1775.7 2113.94 1779.22 2107.03 1781.66C2100.24 1784.09 2092.12 1785.3 2082.64 1785.3Z" fill="#F9F9F9"/>
<path d="M169.168 2021.38C168.123 2021.38 167.163 2021.19 166.288 2020.81C165.413 2020.42 164.72 2019.87 164.208 2019.14C163.717 2018.42 163.472 2017.55 163.472 2016.55C163.472 2015.1 163.931 2013.97 164.848 2013.16C165.787 2012.35 167.067 2011.77 168.688 2011.43L173.84 2010.31C173.84 2009.22 173.616 2008.39 173.168 2007.82C172.741 2007.24 172.037 2006.95 171.056 2006.95C170.203 2006.95 169.541 2007.17 169.072 2007.59C168.603 2008.02 168.293 2008.58 168.144 2009.29L163.664 2009.03C163.984 2007.35 164.784 2006 166.064 2005C167.365 2003.98 169.008 2003.46 170.992 2003.46C173.467 2003.46 175.28 2004.09 176.432 2005.35C177.605 2006.59 178.192 2008.33 178.192 2010.57V2016.62C178.192 2017.04 178.267 2017.34 178.416 2017.51C178.565 2017.66 178.789 2017.74 179.088 2017.74H179.792V2021C179.664 2021.02 179.451 2021.04 179.152 2021.06C178.853 2021.11 178.544 2021.13 178.224 2021.13C177.371 2021.13 176.645 2020.98 176.048 2020.68C175.451 2020.38 174.992 2019.94 174.672 2019.37C174.373 2018.79 174.203 2018.1 174.16 2017.29H174.64C174.533 2018.06 174.245 2018.76 173.776 2019.4C173.307 2020.02 172.677 2020.51 171.888 2020.87C171.099 2021.21 170.192 2021.38 169.168 2021.38ZM170.064 2018.12C170.875 2018.12 171.557 2017.98 172.112 2017.7C172.667 2017.41 173.093 2016.98 173.392 2016.42C173.691 2015.85 173.84 2015.18 173.84 2014.41V2013.38L170.032 2014.22C169.264 2014.39 168.72 2014.63 168.4 2014.95C168.08 2015.27 167.92 2015.73 167.92 2016.33C167.92 2016.88 168.101 2017.32 168.464 2017.64C168.827 2017.96 169.36 2018.12 170.064 2018.12ZM189.06 2021V2003.72C189.06 2003.06 188.889 2002.57 188.548 2002.25C188.206 2001.91 187.716 2001.74 187.076 2001.74H183.364V1998.28H187.844C189.7 1998.28 191.086 1998.75 192.004 1999.69C192.942 2000.61 193.412 2001.98 193.412 2003.82V2021H189.06ZM182.724 2021V2017.54H198.852V2021H182.724ZM207.351 2021L201.527 2003.85H206.103L209.975 2016.26L213.847 2003.85H218.423L212.599 2021H207.351ZM226.731 2021.38C225.685 2021.38 224.725 2021.19 223.851 2020.81C222.976 2020.42 222.283 2019.87 221.771 2019.14C221.28 2018.42 221.035 2017.55 221.035 2016.55C221.035 2015.1 221.493 2013.97 222.411 2013.16C223.349 2012.35 224.629 2011.77 226.251 2011.43L231.403 2010.31C231.403 2009.22 231.179 2008.39 230.731 2007.82C230.304 2007.24 229.6 2006.95 228.619 2006.95C227.765 2006.95 227.104 2007.17 226.635 2007.59C226.165 2008.02 225.856 2008.58 225.707 2009.29L221.227 2009.03C221.547 2007.35 222.347 2006 223.627 2005C224.928 2003.98 226.571 2003.46 228.555 2003.46C231.029 2003.46 232.843 2004.09 233.995 2005.35C235.168 2006.59 235.755 2008.33 235.755 2010.57V2016.62C235.755 2017.04 235.829 2017.34 235.979 2017.51C236.128 2017.66 236.352 2017.74 236.651 2017.74H237.355V2021C237.227 2021.02 237.013 2021.04 236.715 2021.06C236.416 2021.11 236.107 2021.13 235.787 2021.13C234.933 2021.13 234.208 2020.98 233.611 2020.68C233.013 2020.38 232.555 2019.94 232.235 2019.37C231.936 2018.79 231.765 2018.1 231.723 2017.29H232.203C232.096 2018.06 231.808 2018.76 231.339 2019.4C230.869 2020.02 230.24 2020.51 229.451 2020.87C228.661 2021.21 227.755 2021.38 226.731 2021.38ZM227.627 2018.12C228.437 2018.12 229.12 2017.98 229.675 2017.7C230.229 2017.41 230.656 2016.98 230.955 2016.42C231.253 2015.85 231.403 2015.18 231.403 2014.41V2013.38L227.595 2014.22C226.827 2014.39 226.283 2014.63 225.963 2014.95C225.643 2015.27 225.483 2015.73 225.483 2016.33C225.483 2016.88 225.664 2017.32 226.027 2017.64C226.389 2017.96 226.923 2018.12 227.627 2018.12ZM241.054 2021V2003.85H245.022L245.15 2008.52L244.702 2008.33C244.915 2007.22 245.278 2006.3 245.79 2005.58C246.323 2004.85 246.974 2004.32 247.742 2003.98C248.51 2003.63 249.363 2003.46 250.302 2003.46C251.539 2003.46 252.542 2003.74 253.31 2004.3C254.099 2004.85 254.686 2005.61 255.07 2006.57C255.454 2007.53 255.646 2008.64 255.646 2009.9V2021H251.294V2010.89C251.294 2009.59 251.07 2008.64 250.622 2008.04C250.195 2007.44 249.545 2007.14 248.67 2007.14C248.073 2007.14 247.529 2007.29 247.038 2007.59C246.547 2007.89 246.153 2008.33 245.854 2008.9C245.555 2009.48 245.406 2010.21 245.406 2011.08V2021H241.054ZM266.482 2021V2003.85H270.834V2021H266.482ZM260.114 2021V2017.54H276.242V2021H260.114ZM260.434 2007.3V2003.85H270.034V2007.3H260.434ZM266.354 2001.74V1997.96H270.77V2001.74H266.354ZM286.885 2021.38C285.242 2021.38 283.866 2021.13 282.757 2020.62C281.648 2020.08 280.794 2019.39 280.197 2018.54C279.621 2017.66 279.28 2016.69 279.173 2015.62L283.461 2015.43C283.653 2016.14 284.016 2016.7 284.549 2017.13C285.082 2017.53 285.872 2017.74 286.917 2017.74C287.92 2017.74 288.656 2017.62 289.125 2017.38C289.594 2017.15 289.829 2016.8 289.829 2016.33C289.829 2015.99 289.744 2015.72 289.573 2015.53C289.402 2015.31 289.082 2015.12 288.613 2014.95C288.144 2014.76 287.44 2014.58 286.501 2014.41C284.773 2014.05 283.397 2013.64 282.373 2013.19C281.37 2012.72 280.645 2012.15 280.197 2011.46C279.77 2010.76 279.557 2009.89 279.557 2008.84C279.557 2007.86 279.813 2006.96 280.325 2006.15C280.837 2005.34 281.616 2004.69 282.661 2004.2C283.706 2003.71 285.018 2003.46 286.597 2003.46C288.304 2003.46 289.68 2003.74 290.725 2004.3C291.792 2004.85 292.592 2005.57 293.125 2006.44C293.658 2007.31 294 2008.24 294.149 2009.22L289.829 2009.42C289.744 2008.95 289.562 2008.54 289.285 2008.2C289.008 2007.86 288.645 2007.59 288.197 2007.4C287.749 2007.21 287.216 2007.11 286.597 2007.11C285.68 2007.11 285.018 2007.29 284.613 2007.66C284.208 2008 284.005 2008.39 284.005 2008.84C284.005 2009.25 284.112 2009.58 284.325 2009.83C284.538 2010.09 284.922 2010.31 285.477 2010.5C286.053 2010.7 286.853 2010.9 287.877 2011.11C289.541 2011.43 290.832 2011.82 291.749 2012.26C292.666 2012.69 293.317 2013.22 293.701 2013.86C294.085 2014.48 294.277 2015.27 294.277 2016.23C294.277 2017.3 293.978 2018.22 293.381 2018.98C292.805 2019.75 291.962 2020.35 290.853 2020.78C289.765 2021.18 288.442 2021.38 286.885 2021.38ZM306.073 2021.38C304.43 2021.38 303.054 2021.13 301.945 2020.62C300.835 2020.08 299.982 2019.39 299.385 2018.54C298.809 2017.66 298.467 2016.69 298.361 2015.62L302.649 2015.43C302.841 2016.14 303.203 2016.7 303.737 2017.13C304.27 2017.53 305.059 2017.74 306.105 2017.74C307.107 2017.74 307.843 2017.62 308.313 2017.38C308.782 2017.15 309.017 2016.8 309.017 2016.33C309.017 2015.99 308.931 2015.72 308.761 2015.53C308.59 2015.31 308.27 2015.12 307.801 2014.95C307.331 2014.76 306.627 2014.58 305.689 2014.41C303.961 2014.05 302.585 2013.64 301.561 2013.19C300.558 2012.72 299.833 2012.15 299.385 2011.46C298.958 2010.76 298.745 2009.89 298.745 2008.84C298.745 2007.86 299.001 2006.96 299.513 2006.15C300.025 2005.34 300.803 2004.69 301.849 2004.2C302.894 2003.71 304.206 2003.46 305.785 2003.46C307.491 2003.46 308.867 2003.74 309.913 2004.3C310.979 2004.85 311.779 2005.57 312.312 2006.44C312.846 2007.31 313.187 2008.24 313.337 2009.22L309.017 2009.42C308.931 2008.95 308.75 2008.54 308.473 2008.2C308.195 2007.86 307.833 2007.59 307.385 2007.4C306.937 2007.21 306.403 2007.11 305.785 2007.11C304.867 2007.11 304.206 2007.29 303.801 2007.66C303.395 2008 303.193 2008.39 303.193 2008.84C303.193 2009.25 303.299 2009.58 303.513 2009.83C303.726 2010.09 304.11 2010.31 304.665 2010.5C305.241 2010.7 306.041 2010.9 307.065 2011.11C308.729 2011.43 310.019 2011.82 310.937 2012.26C311.854 2012.69 312.505 2013.22 312.889 2013.86C313.273 2014.48 313.465 2015.27 313.465 2016.23C313.465 2017.3 313.166 2018.22 312.569 2018.98C311.993 2019.75 311.15 2020.35 310.041 2020.78C308.953 2021.18 307.63 2021.38 306.073 2021.38ZM322.572 2021V2016.17H327.628V2021H322.572ZM336.992 2021V2003.85H340.96L341.088 2008.52L340.64 2008.33C340.853 2007.22 341.216 2006.3 341.728 2005.58C342.261 2004.85 342.912 2004.32 343.68 2003.98C344.448 2003.63 345.301 2003.46 346.24 2003.46C347.477 2003.46 348.48 2003.74 349.248 2004.3C350.037 2004.85 350.624 2005.61 351.008 2006.57C351.392 2007.53 351.583 2008.64 351.583 2009.9V2021H347.232V2010.89C347.232 2009.59 347.008 2008.64 346.56 2008.04C346.133 2007.44 345.482 2007.14 344.608 2007.14C344.01 2007.14 343.466 2007.29 342.976 2007.59C342.485 2007.89 342.09 2008.33 341.792 2008.9C341.493 2009.48 341.344 2010.21 341.344 2011.08V2021H336.992ZM363.603 2021.38C362.003 2021.38 360.584 2021.02 359.347 2020.3C358.131 2019.55 357.171 2018.5 356.467 2017.16C355.784 2015.82 355.443 2014.24 355.443 2012.42C355.443 2010.65 355.784 2009.1 356.467 2007.75C357.15 2006.41 358.099 2005.36 359.315 2004.62C360.531 2003.85 361.939 2003.46 363.539 2003.46C365.118 2003.46 366.504 2003.84 367.699 2004.58C368.915 2005.33 369.864 2006.39 370.547 2007.75C371.23 2009.1 371.571 2010.69 371.571 2012.52V2013.61H359.923C360.03 2014.89 360.414 2015.87 361.075 2016.55C361.758 2017.21 362.632 2017.54 363.699 2017.54C364.488 2017.54 365.16 2017.36 365.715 2017C366.27 2016.62 366.654 2016.1 366.867 2015.46L371.219 2015.75C370.643 2017.54 369.704 2018.93 368.403 2019.91C367.123 2020.89 365.523 2021.38 363.603 2021.38ZM359.987 2010.63H366.931C366.824 2009.52 366.462 2008.69 365.843 2008.14C365.224 2007.58 364.446 2007.3 363.507 2007.3C362.526 2007.3 361.726 2007.59 361.107 2008.17C360.51 2008.72 360.136 2009.54 359.987 2010.63ZM382.663 2021.38C381.041 2021.38 379.623 2021.02 378.407 2020.3C377.191 2019.55 376.241 2018.5 375.559 2017.16C374.876 2015.82 374.535 2014.24 374.535 2012.42C374.535 2010.59 374.876 2009.01 375.559 2007.69C376.241 2006.34 377.191 2005.31 378.407 2004.58C379.623 2003.84 381.041 2003.46 382.663 2003.46C384.284 2003.46 385.703 2003.84 386.919 2004.58C388.135 2005.31 389.084 2006.34 389.767 2007.69C390.449 2009.01 390.791 2010.59 390.791 2012.42C390.791 2014.24 390.449 2015.82 389.767 2017.16C389.084 2018.5 388.135 2019.55 386.919 2020.3C385.703 2021.02 384.284 2021.38 382.663 2021.38ZM382.663 2017.54C383.815 2017.54 384.7 2017.11 385.319 2016.23C385.959 2015.34 386.279 2014.07 386.279 2012.42C386.279 2010.76 385.959 2009.49 385.319 2008.62C384.7 2007.74 383.815 2007.3 382.663 2007.3C381.511 2007.3 380.615 2007.74 379.975 2008.62C379.356 2009.49 379.047 2010.76 379.047 2012.42C379.047 2014.07 379.356 2015.34 379.975 2016.23C380.615 2017.11 381.511 2017.54 382.663 2017.54ZM402.138 2021.38C400.517 2021.38 399.077 2021.01 397.818 2020.26C396.581 2019.52 395.61 2018.47 394.906 2017.13C394.223 2015.76 393.882 2014.19 393.882 2012.42C393.882 2010.65 394.223 2009.1 394.906 2007.75C395.61 2006.41 396.581 2005.36 397.818 2004.62C399.077 2003.85 400.517 2003.46 402.138 2003.46C403.482 2003.46 404.709 2003.73 405.818 2004.26C406.927 2004.8 407.834 2005.55 408.538 2006.54C409.263 2007.52 409.722 2008.69 409.914 2010.06L405.594 2010.28C405.381 2009.32 404.975 2008.58 404.378 2008.07C403.781 2007.56 403.045 2007.3 402.17 2007.3C400.997 2007.3 400.069 2007.76 399.386 2008.68C398.725 2009.58 398.394 2010.82 398.394 2012.42C398.394 2014.02 398.725 2015.28 399.386 2016.2C400.069 2017.1 400.997 2017.54 402.17 2017.54C403.066 2017.54 403.813 2017.28 404.41 2016.74C405.029 2016.21 405.434 2015.43 405.626 2014.41L409.946 2014.63C409.775 2015.98 409.327 2017.16 408.602 2018.18C407.877 2019.19 406.959 2019.98 405.85 2020.55C404.741 2021.11 403.503 2021.38 402.138 2021.38ZM419.982 2021V2003.85H424.334V2021H419.982ZM413.614 2021V2017.54H429.742V2021H413.614ZM413.934 2007.3V2003.85H423.534V2007.3H413.934ZM419.854 2001.74V1997.96H424.27V2001.74H419.854ZM442.561 2021C440.641 2021 439.222 2020.56 438.305 2019.69C437.409 2018.81 436.961 2017.46 436.961 2015.62V1999.82H441.313V2015.21C441.313 2016 441.494 2016.58 441.857 2016.97C442.241 2017.35 442.828 2017.54 443.617 2017.54H447.649V2021H442.561ZM432.033 2007.3V2003.85H447.649V2007.3H432.033ZM458.357 2021V2003.85H462.709V2021H458.357ZM451.989 2021V2017.54H468.117V2021H451.989ZM452.309 2007.3V2003.85H461.909V2007.3H452.309ZM458.229 2001.74V1997.96H462.645V2001.74H458.229ZM478.728 2021.38C477.128 2021.38 475.709 2021.02 474.472 2020.3C473.256 2019.55 472.296 2018.5 471.592 2017.16C470.909 2015.82 470.568 2014.24 470.568 2012.42C470.568 2010.65 470.909 2009.1 471.592 2007.75C472.275 2006.41 473.224 2005.36 474.44 2004.62C475.656 2003.85 477.064 2003.46 478.664 2003.46C480.243 2003.46 481.629 2003.84 482.824 2004.58C484.04 2005.33 484.989 2006.39 485.672 2007.75C486.355 2009.1 486.696 2010.69 486.696 2012.52V2013.61H475.048C475.155 2014.89 475.539 2015.87 476.2 2016.55C476.883 2017.21 477.757 2017.54 478.824 2017.54C479.613 2017.54 480.285 2017.36 480.84 2017C481.395 2016.62 481.779 2016.1 481.992 2015.46L486.344 2015.75C485.768 2017.54 484.829 2018.93 483.528 2019.91C482.248 2020.89 480.648 2021.38 478.728 2021.38ZM475.112 2010.63H482.056C481.949 2009.52 481.587 2008.69 480.968 2008.14C480.349 2007.58 479.571 2007.3 478.632 2007.3C477.651 2007.3 476.851 2007.59 476.232 2008.17C475.635 2008.72 475.261 2009.54 475.112 2010.63ZM497.948 2021.38C496.305 2021.38 494.929 2021.13 493.82 2020.62C492.71 2020.08 491.857 2019.39 491.26 2018.54C490.684 2017.66 490.342 2016.69 490.236 2015.62L494.524 2015.43C494.716 2016.14 495.078 2016.7 495.612 2017.13C496.145 2017.53 496.934 2017.74 497.98 2017.74C498.982 2017.74 499.718 2017.62 500.188 2017.38C500.657 2017.15 500.892 2016.8 500.892 2016.33C500.892 2015.99 500.806 2015.72 500.636 2015.53C500.465 2015.31 500.145 2015.12 499.676 2014.95C499.206 2014.76 498.502 2014.58 497.564 2014.41C495.836 2014.05 494.46 2013.64 493.436 2013.19C492.433 2012.72 491.708 2012.15 491.26 2011.46C490.833 2010.76 490.62 2009.89 490.62 2008.84C490.62 2007.86 490.876 2006.96 491.388 2006.15C491.9 2005.34 492.678 2004.69 493.724 2004.2C494.769 2003.71 496.081 2003.46 497.66 2003.46C499.366 2003.46 500.742 2003.74 501.788 2004.3C502.854 2004.85 503.654 2005.57 504.188 2006.44C504.721 2007.31 505.062 2008.24 505.212 2009.22L500.892 2009.42C500.806 2008.95 500.625 2008.54 500.348 2008.2C500.07 2007.86 499.708 2007.59 499.26 2007.4C498.812 2007.21 498.278 2007.11 497.66 2007.11C496.742 2007.11 496.081 2007.29 495.676 2007.66C495.27 2008 495.068 2008.39 495.068 2008.84C495.068 2009.25 495.174 2009.58 495.388 2009.83C495.601 2010.09 495.985 2010.31 496.54 2010.5C497.116 2010.7 497.916 2010.9 498.94 2011.11C500.604 2011.43 501.894 2011.82 502.812 2012.26C503.729 2012.69 504.38 2013.22 504.764 2013.86C505.148 2014.48 505.34 2015.27 505.34 2016.23C505.34 2017.3 505.041 2018.22 504.444 2018.98C503.868 2019.75 503.025 2020.35 501.916 2020.78C500.828 2021.18 499.505 2021.38 497.948 2021.38ZM514.447 2021V2016.17H519.503V2021H514.447ZM536.163 2021.38C534.541 2021.38 533.123 2021.02 531.907 2020.3C530.691 2019.55 529.741 2018.5 529.059 2017.16C528.376 2015.82 528.035 2014.24 528.035 2012.42C528.035 2010.59 528.376 2009.01 529.059 2007.69C529.741 2006.34 530.691 2005.31 531.907 2004.58C533.123 2003.84 534.541 2003.46 536.163 2003.46C537.784 2003.46 539.203 2003.84 540.419 2004.58C541.635 2005.31 542.584 2006.34 543.267 2007.69C543.949 2009.01 544.291 2010.59 544.291 2012.42C544.291 2014.24 543.949 2015.82 543.267 2017.16C542.584 2018.5 541.635 2019.55 540.419 2020.3C539.203 2021.02 537.784 2021.38 536.163 2021.38ZM536.163 2017.54C537.315 2017.54 538.2 2017.11 538.819 2016.23C539.459 2015.34 539.779 2014.07 539.779 2012.42C539.779 2010.76 539.459 2009.49 538.819 2008.62C538.2 2007.74 537.315 2007.3 536.163 2007.3C535.011 2007.3 534.115 2007.74 533.475 2008.62C532.856 2009.49 532.547 2010.76 532.547 2012.42C532.547 2014.07 532.856 2015.34 533.475 2016.23C534.115 2017.11 535.011 2017.54 536.163 2017.54ZM552.15 2021V2003.85H555.35L555.702 2008.33H555.414C555.585 2006.83 556.011 2005.71 556.694 2004.97C557.398 2004.22 558.422 2003.85 559.766 2003.85H563.606V2007.4H560.086C559.275 2007.4 558.603 2007.54 558.07 2007.82C557.537 2008.09 557.142 2008.51 556.886 2009.06C556.63 2009.62 556.502 2010.31 556.502 2011.14V2021H552.15ZM548.054 2021V2017.54H561.718V2021H548.054ZM548.054 2007.3V2003.85H554.742V2007.3H548.054ZM574.41 2026.18C573.023 2026.18 571.807 2025.98 570.762 2025.58C569.738 2025.17 568.895 2024.59 568.234 2023.85C567.594 2023.12 567.146 2022.26 566.89 2021.26L571.434 2021C571.626 2021.51 571.956 2021.92 572.426 2022.22C572.895 2022.51 573.556 2022.66 574.41 2022.66C575.626 2022.66 576.543 2022.39 577.162 2021.83C577.802 2021.3 578.122 2020.51 578.122 2019.46V2017.48C577.738 2018.27 577.151 2018.91 576.362 2019.4C575.572 2019.87 574.58 2020.1 573.385 2020.1C572.02 2020.1 570.794 2019.76 569.706 2019.08C568.639 2018.38 567.796 2017.42 567.178 2016.2C566.58 2014.96 566.282 2013.54 566.282 2011.94C566.282 2010.22 566.58 2008.72 567.178 2007.46C567.775 2006.18 568.596 2005.2 569.641 2004.52C570.708 2003.82 571.924 2003.46 573.29 2003.46C574.442 2003.46 575.434 2003.73 576.266 2004.26C577.119 2004.78 577.759 2005.51 578.186 2006.47L578.25 2003.85H582.474V2018.92C582.474 2020.52 582.143 2021.85 581.482 2022.92C580.82 2024.01 579.882 2024.82 578.666 2025.35C577.471 2025.91 576.052 2026.18 574.41 2026.18ZM574.474 2016.62C575.562 2016.62 576.436 2016.22 577.098 2015.43C577.78 2014.62 578.122 2013.43 578.122 2011.85C578.143 2010.78 577.994 2009.9 577.674 2009.19C577.375 2008.47 576.948 2007.92 576.394 2007.56C575.839 2007.18 575.199 2006.98 574.474 2006.98C573.3 2006.98 572.394 2007.4 571.754 2008.23C571.114 2009.06 570.794 2010.27 570.794 2011.85C570.794 2013.43 571.114 2014.62 571.754 2015.43C572.415 2016.22 573.322 2016.62 574.474 2016.62Z" fill="white"/>
<path d="M1897.1 1841.96L1907.9 1811H1912.5L1901.7 1841.96H1897.1ZM1929.01 1838C1926.85 1838 1925.26 1837.51 1924.23 1836.52C1923.22 1835.54 1922.71 1834.02 1922.71 1831.95V1814.17H1927.61V1831.48C1927.61 1832.37 1927.81 1833.03 1928.22 1833.46C1928.65 1833.9 1929.31 1834.11 1930.2 1834.11H1934.74V1838H1929.01ZM1917.17 1822.59V1818.7H1934.74V1822.59H1917.17ZM1947.97 1838.43C1946.15 1838.43 1944.55 1838.02 1943.18 1837.21C1941.82 1836.37 1940.75 1835.19 1939.98 1833.68C1939.21 1832.17 1938.83 1830.39 1938.83 1828.35C1938.83 1826.29 1939.21 1824.51 1939.98 1823.02C1940.75 1821.51 1941.82 1820.35 1943.18 1819.53C1944.55 1818.69 1946.15 1818.27 1947.97 1818.27C1949.8 1818.27 1951.39 1818.69 1952.76 1819.53C1954.13 1820.35 1955.2 1821.51 1955.96 1823.02C1956.73 1824.51 1957.12 1826.29 1957.12 1828.35C1957.12 1830.39 1956.73 1832.17 1955.96 1833.68C1955.2 1835.19 1954.13 1836.37 1952.76 1837.21C1951.39 1838.02 1949.8 1838.43 1947.97 1838.43ZM1947.97 1834.11C1949.27 1834.11 1950.26 1833.62 1950.96 1832.64C1951.68 1831.63 1952.04 1830.2 1952.04 1828.35C1952.04 1826.48 1951.68 1825.05 1950.96 1824.07C1950.26 1823.08 1949.27 1822.59 1947.97 1822.59C1946.68 1822.59 1945.67 1823.08 1944.95 1824.07C1944.25 1825.05 1943.9 1826.48 1943.9 1828.35C1943.9 1830.2 1944.25 1831.63 1944.95 1832.64C1945.67 1833.62 1946.68 1834.11 1947.97 1834.11ZM1969.56 1838.43C1967.73 1838.43 1966.14 1838.02 1964.77 1837.21C1963.4 1836.37 1962.33 1835.19 1961.57 1833.68C1960.8 1832.17 1960.41 1830.39 1960.41 1828.35C1960.41 1826.29 1960.8 1824.51 1961.57 1823.02C1962.33 1821.51 1963.4 1820.35 1964.77 1819.53C1966.14 1818.69 1967.73 1818.27 1969.56 1818.27C1971.38 1818.27 1972.98 1818.69 1974.35 1819.53C1975.71 1820.35 1976.78 1821.51 1977.55 1823.02C1978.32 1824.51 1978.7 1826.29 1978.7 1828.35C1978.7 1830.39 1978.32 1832.17 1977.55 1833.68C1976.78 1835.19 1975.71 1836.37 1974.35 1837.21C1972.98 1838.02 1971.38 1838.43 1969.56 1838.43ZM1969.56 1834.11C1970.85 1834.11 1971.85 1833.62 1972.55 1832.64C1973.27 1831.63 1973.63 1830.2 1973.63 1828.35C1973.63 1826.48 1973.27 1825.05 1972.55 1824.07C1971.85 1823.08 1970.85 1822.59 1969.56 1822.59C1968.26 1822.59 1967.25 1823.08 1966.53 1824.07C1965.84 1825.05 1965.49 1826.48 1965.49 1828.35C1965.49 1830.2 1965.84 1831.63 1966.53 1832.64C1967.25 1833.62 1968.26 1834.11 1969.56 1834.11ZM1989.2 1838V1818.56C1989.2 1817.82 1989.01 1817.26 1988.62 1816.9C1988.24 1816.52 1987.69 1816.33 1986.97 1816.33H1982.79V1812.44H1987.83C1989.92 1812.44 1991.48 1812.97 1992.51 1814.02C1993.57 1815.06 1994.1 1816.6 1994.1 1818.67V1838H1989.2ZM1982.07 1838V1834.11H2000.22V1838H1982.07ZM2012.91 1838.43C2011.06 1838.43 2009.51 1838.14 2008.27 1837.57C2007.02 1836.97 2006.06 1836.19 2005.39 1835.23C2004.74 1834.24 2004.35 1833.15 2004.23 1831.95L2009.06 1831.74C2009.27 1832.53 2009.68 1833.16 2010.28 1833.64C2010.88 1834.1 2011.77 1834.33 2012.95 1834.33C2014.07 1834.33 2014.9 1834.2 2015.43 1833.93C2015.96 1833.67 2016.22 1833.27 2016.22 1832.74C2016.22 1832.36 2016.13 1832.06 2015.93 1831.84C2015.74 1831.6 2015.38 1831.39 2014.85 1831.2C2014.33 1830.98 2013.53 1830.78 2012.48 1830.58C2010.53 1830.18 2008.99 1829.72 2007.83 1829.22C2006.71 1828.69 2005.89 1828.04 2005.39 1827.27C2004.91 1826.48 2004.67 1825.5 2004.67 1824.32C2004.67 1823.22 2004.95 1822.21 2005.53 1821.3C2006.11 1820.38 2006.98 1819.65 2008.16 1819.1C2009.33 1818.55 2010.81 1818.27 2012.59 1818.27C2014.51 1818.27 2016.05 1818.58 2017.23 1819.21C2018.43 1819.83 2019.33 1820.64 2019.93 1821.62C2020.53 1822.6 2020.91 1823.65 2021.08 1824.75L2016.22 1824.97C2016.13 1824.44 2015.92 1823.98 2015.61 1823.6C2015.3 1823.22 2014.89 1822.92 2014.39 1822.7C2013.88 1822.48 2013.28 1822.38 2012.59 1822.38C2011.55 1822.38 2010.81 1822.58 2010.35 1822.99C2009.9 1823.37 2009.67 1823.82 2009.67 1824.32C2009.67 1824.78 2009.79 1825.15 2010.03 1825.44C2010.27 1825.72 2010.7 1825.98 2011.33 1826.19C2011.97 1826.41 2012.87 1826.64 2014.03 1826.88C2015.9 1827.24 2017.35 1827.67 2018.38 1828.17C2019.41 1828.65 2020.15 1829.25 2020.58 1829.97C2021.01 1830.67 2021.23 1831.56 2021.23 1832.64C2021.23 1833.84 2020.89 1834.87 2020.22 1835.73C2019.57 1836.6 2018.62 1837.27 2017.37 1837.75C2016.15 1838.2 2014.66 1838.43 2012.91 1838.43ZM2031.47 1838V1832.56H2037.16V1838H2031.47ZM2047.91 1838V1812.44H2052.81V1822.84L2052.41 1822.48C2052.7 1821.5 2053.12 1820.71 2053.67 1820.11C2054.22 1819.48 2054.89 1819.03 2055.69 1818.74C2056.48 1818.43 2057.34 1818.27 2058.28 1818.27C2059.62 1818.27 2060.73 1818.57 2061.59 1819.17C2062.45 1819.77 2063.1 1820.62 2063.53 1821.73C2063.97 1822.81 2064.18 1824.08 2064.18 1825.54V1838H2059.29V1826.55C2059.29 1825.06 2059.03 1824.01 2058.53 1823.38C2058.03 1822.74 2057.32 1822.41 2056.41 1822.41C2055.37 1822.41 2054.51 1822.78 2053.81 1823.53C2053.14 1824.27 2052.81 1825.39 2052.81 1826.88V1838H2047.91ZM2080.12 1838C2077.96 1838 2076.36 1837.51 2075.33 1836.52C2074.32 1835.54 2073.82 1834.02 2073.82 1831.95V1814.17H2078.71V1831.48C2078.71 1832.37 2078.92 1833.03 2079.32 1833.46C2079.76 1833.9 2080.42 1834.11 2081.3 1834.11H2085.84V1838H2080.12ZM2068.27 1822.59V1818.7H2085.84V1822.59H2068.27ZM2089.28 1838V1818.7H2093.28L2093.42 1823.13L2093.03 1823.02C2093.31 1821.44 2093.79 1820.25 2094.47 1819.46C2095.16 1818.67 2096.03 1818.27 2097.06 1818.27C2098.26 1818.27 2099.12 1818.68 2099.65 1819.5C2100.2 1820.29 2100.57 1821.51 2100.77 1823.17H2100.23C2100.49 1821.56 2101.02 1820.35 2101.81 1819.53C2102.6 1818.69 2103.57 1818.27 2104.73 1818.27C2106.14 1818.27 2107.19 1818.79 2107.86 1819.82C2108.53 1820.83 2108.87 1822.42 2108.87 1824.61V1838H2104.29V1825.58C2104.29 1824.33 2104.17 1823.49 2103.93 1823.06C2103.72 1822.63 2103.37 1822.41 2102.89 1822.41C2102.55 1822.41 2102.25 1822.52 2101.99 1822.74C2101.75 1822.95 2101.56 1823.3 2101.41 1823.78C2101.27 1824.24 2101.2 1824.85 2101.2 1825.62V1838H2096.95V1825.58C2096.95 1824.38 2096.84 1823.55 2096.63 1823.1C2096.41 1822.64 2096.05 1822.41 2095.55 1822.41C2095.21 1822.41 2094.91 1822.52 2094.65 1822.74C2094.38 1822.95 2094.18 1823.3 2094.03 1823.78C2093.91 1824.24 2093.85 1824.85 2093.85 1825.62V1838H2089.28ZM2118.72 1838V1818.56C2118.72 1817.82 2118.52 1817.26 2118.14 1816.9C2117.76 1816.52 2117.2 1816.33 2116.48 1816.33H2112.31V1812.44H2117.35C2119.44 1812.44 2121 1812.97 2122.03 1814.02C2123.08 1815.06 2123.61 1816.6 2123.61 1818.67V1838H2118.72ZM2111.59 1838V1834.11H2129.73V1838H2111.59Z" fill="white"/>
<path d="M169.328 2075V2056.38H163.28V2052.28H179.92V2056.38H173.872V2075H169.328ZM185.476 2067.64V2063.7H196.1V2067.64H185.476ZM208.439 2075V2060.09H202.871V2056.31H205.367C206.22 2056.31 206.914 2056.18 207.447 2055.93C208.002 2055.65 208.396 2055.22 208.631 2054.65C208.887 2054.05 209.015 2053.26 209.015 2052.28H212.983V2075H208.439ZM201.911 2075V2070.9H218.039V2075H201.911ZM224.907 2075C224.907 2072.7 225.205 2070.48 225.803 2068.34C226.421 2066.19 227.296 2064.11 228.427 2062.1C229.557 2060.1 230.912 2058.19 232.491 2056.38H221.291V2052.28H237.035V2056.15C235.733 2057.65 234.613 2059.11 233.675 2060.54C232.757 2061.94 232 2063.39 231.403 2064.89C230.805 2066.38 230.368 2067.96 230.091 2069.62C229.813 2071.27 229.675 2073.06 229.675 2075H224.907ZM240.158 2075C240.158 2073.17 240.393 2071.55 240.862 2070.17C241.353 2068.76 242.195 2067.48 243.39 2066.33C244.606 2065.18 246.259 2064.06 248.35 2062.97C249.139 2062.56 249.79 2062.17 250.302 2061.78C250.814 2061.4 251.198 2060.97 251.454 2060.5C251.71 2060.03 251.838 2059.46 251.838 2058.78C251.838 2058.16 251.721 2057.63 251.486 2057.21C251.251 2056.76 250.91 2056.42 250.462 2056.18C250.014 2055.93 249.449 2055.8 248.766 2055.8C247.614 2055.8 246.739 2056.13 246.142 2056.79C245.566 2057.43 245.171 2058.36 244.958 2059.58L240.254 2059.29C240.489 2056.96 241.321 2055.13 242.75 2053.78C244.201 2052.44 246.227 2051.77 248.83 2051.77C250.537 2051.77 251.955 2052.06 253.086 2052.63C254.238 2053.19 255.102 2053.97 255.678 2054.97C256.254 2055.97 256.542 2057.15 256.542 2058.52C256.542 2059.74 256.35 2060.78 255.966 2061.66C255.582 2062.53 254.953 2063.33 254.078 2064.06C253.203 2064.78 252.009 2065.56 250.494 2066.39C249.278 2067.05 248.297 2067.66 247.55 2068.22C246.825 2068.75 246.291 2069.24 245.95 2069.69C245.609 2070.11 245.417 2070.52 245.374 2070.9H256.542V2075H240.158ZM267.538 2075.51C265.874 2075.51 264.402 2075.27 263.122 2074.78C261.863 2074.26 260.882 2073.51 260.178 2072.5C259.495 2071.5 259.154 2070.26 259.154 2068.79C259.154 2067.11 259.666 2065.72 260.69 2064.63C261.714 2063.54 263.079 2062.84 264.786 2062.52L264.85 2063.16C263.463 2062.82 262.322 2062.22 261.426 2061.37C260.53 2060.51 260.082 2059.41 260.082 2058.04C260.082 2056.8 260.391 2055.71 261.01 2054.78C261.65 2053.84 262.524 2053.1 263.634 2052.57C264.743 2052.03 266.044 2051.77 267.538 2051.77C269.031 2051.77 270.332 2052.03 271.442 2052.57C272.572 2053.1 273.447 2053.84 274.066 2054.78C274.684 2055.71 274.994 2056.8 274.994 2058.04C274.994 2059.41 274.546 2060.51 273.65 2061.37C272.775 2062.22 271.634 2062.82 270.226 2063.16L270.29 2062.52C271.996 2062.86 273.362 2063.58 274.385 2064.66C275.41 2065.73 275.922 2067.11 275.922 2068.79C275.922 2070.26 275.57 2071.5 274.866 2072.5C274.183 2073.51 273.212 2074.26 271.954 2074.78C270.695 2075.27 269.223 2075.51 267.538 2075.51ZM267.538 2071.48C268.562 2071.48 269.436 2071.23 270.162 2070.74C270.887 2070.25 271.25 2069.45 271.25 2068.34C271.25 2067.28 270.919 2066.43 270.258 2065.82C269.618 2065.18 268.711 2064.86 267.538 2064.86C266.386 2064.86 265.479 2065.18 264.818 2065.82C264.156 2066.43 263.826 2067.28 263.826 2068.34C263.826 2069.45 264.188 2070.25 264.914 2070.74C265.639 2071.23 266.514 2071.48 267.538 2071.48ZM267.538 2060.98C268.348 2060.98 269.01 2060.77 269.522 2060.34C270.034 2059.9 270.29 2059.22 270.29 2058.33C270.29 2057.52 270.034 2056.9 269.522 2056.47C269.031 2056.02 268.37 2055.8 267.538 2055.8C266.706 2055.8 266.034 2056.02 265.522 2056.47C265.031 2056.9 264.786 2057.52 264.786 2058.33C264.786 2059.22 265.042 2059.9 265.554 2060.34C266.066 2060.77 266.727 2060.98 267.538 2060.98ZM288.165 2075V2070.46H278.021V2066.71L287.557 2052.28H292.741V2066.49H295.429V2070.46H292.741V2075H288.165ZM282.309 2066.49H288.165V2058.01L282.309 2066.49ZM305.849 2051.77C307.705 2051.77 309.251 2052.17 310.489 2052.98C311.747 2053.77 312.697 2054.94 313.337 2056.47C313.977 2058.01 314.297 2059.89 314.297 2062.1C314.297 2063.98 314.126 2065.73 313.785 2067.35C313.443 2068.97 312.899 2070.4 312.153 2071.64C311.427 2072.86 310.478 2073.81 309.305 2074.49C308.131 2075.17 306.702 2075.51 305.017 2075.51C303.523 2075.51 302.275 2075.27 301.273 2074.78C300.291 2074.29 299.502 2073.61 298.905 2072.76C298.329 2071.91 297.902 2070.93 297.625 2069.82L302.233 2069.5C302.403 2070.05 302.691 2070.52 303.097 2070.9C303.523 2071.29 304.163 2071.48 305.017 2071.48C305.955 2071.48 306.777 2071.21 307.481 2070.68C308.185 2070.13 308.729 2069.25 309.113 2068.06C309.497 2066.86 309.699 2065.29 309.721 2063.35L311.129 2063.48C310.915 2064.16 310.542 2064.82 310.009 2065.46C309.475 2066.1 308.782 2066.63 307.929 2067.03C307.075 2067.42 306.073 2067.61 304.921 2067.61C303.427 2067.61 302.126 2067.3 301.016 2066.68C299.907 2066.04 299.043 2065.14 298.424 2063.99C297.827 2062.84 297.529 2061.51 297.529 2059.99C297.529 2058.31 297.87 2056.86 298.553 2055.64C299.257 2054.4 300.227 2053.45 301.465 2052.79C302.723 2052.11 304.185 2051.77 305.849 2051.77ZM305.945 2055.86C304.75 2055.86 303.822 2056.21 303.161 2056.89C302.521 2057.57 302.201 2058.55 302.201 2059.83C302.201 2061.01 302.499 2061.95 303.097 2062.68C303.715 2063.38 304.601 2063.74 305.753 2063.74C306.542 2063.74 307.225 2063.58 307.801 2063.26C308.398 2062.91 308.846 2062.46 309.145 2061.88C309.465 2061.28 309.625 2060.59 309.625 2059.8C309.625 2059.07 309.475 2058.41 309.177 2057.82C308.899 2057.22 308.483 2056.75 307.929 2056.41C307.395 2056.05 306.734 2055.86 305.945 2055.86ZM324.94 2075.51C322.337 2075.51 320.375 2074.9 319.052 2073.69C317.751 2072.45 317.036 2070.8 316.908 2068.73L321.516 2068.5C321.623 2069.59 321.996 2070.36 322.636 2070.81C323.297 2071.26 324.097 2071.48 325.036 2071.48C325.697 2071.48 326.295 2071.37 326.828 2071.16C327.383 2070.93 327.82 2070.57 328.14 2070.1C328.46 2069.63 328.62 2069.03 328.62 2068.28C328.62 2067.55 328.46 2066.95 328.14 2066.46C327.841 2065.97 327.404 2065.59 326.828 2065.34C326.273 2065.08 325.601 2064.95 324.812 2064.95H323.116V2061.34H324.812C325.409 2061.34 325.943 2061.24 326.412 2061.05C326.881 2060.86 327.244 2060.56 327.5 2060.15C327.777 2059.75 327.916 2059.22 327.916 2058.58C327.916 2057.62 327.649 2056.92 327.116 2056.47C326.604 2056 325.9 2055.77 325.004 2055.77C324.023 2055.77 323.276 2056 322.764 2056.47C322.273 2056.92 321.975 2057.54 321.868 2058.33L317.26 2058.1C317.495 2056.16 318.263 2054.63 319.564 2053.5C320.887 2052.34 322.711 2051.77 325.036 2051.77C326.593 2051.77 327.937 2052.01 329.068 2052.5C330.199 2052.99 331.063 2053.71 331.66 2054.65C332.279 2055.57 332.588 2056.67 332.588 2057.98C332.588 2059.43 332.151 2060.59 331.276 2061.46C330.401 2062.32 329.143 2062.88 327.5 2063.16V2062.55C329.335 2062.77 330.753 2063.42 331.756 2064.5C332.78 2065.57 333.292 2066.94 333.292 2068.6C333.292 2070.03 332.951 2071.27 332.268 2072.31C331.585 2073.34 330.615 2074.13 329.356 2074.68C328.119 2075.23 326.647 2075.51 324.94 2075.51ZM342.752 2075V2060.09H337.184V2056.31H339.68C340.533 2056.31 341.226 2056.18 341.76 2055.93C342.314 2055.65 342.709 2055.22 342.944 2054.65C343.2 2054.05 343.328 2053.26 343.328 2052.28H347.296V2075H342.752ZM336.224 2075V2070.9H352.352V2075H336.224ZM363.539 2075.51C361.704 2075.51 360.158 2075.12 358.899 2074.33C357.64 2073.52 356.691 2072.34 356.051 2070.81C355.411 2069.25 355.091 2067.37 355.091 2065.18C355.091 2063.3 355.262 2061.55 355.603 2059.93C355.944 2058.31 356.478 2056.89 357.203 2055.67C357.95 2054.43 358.91 2053.47 360.083 2052.79C361.256 2052.11 362.686 2051.77 364.371 2051.77C365.864 2051.77 367.102 2052.01 368.083 2052.5C369.086 2052.99 369.875 2053.67 370.451 2054.52C371.048 2055.37 371.486 2056.35 371.763 2057.46L367.155 2057.78C367.006 2057.21 366.718 2056.74 366.291 2056.38C365.886 2055.99 365.246 2055.8 364.371 2055.8C363.432 2055.8 362.611 2056.08 361.907 2056.63C361.224 2057.17 360.68 2058.03 360.275 2059.22C359.891 2060.42 359.688 2061.99 359.667 2063.93L358.259 2063.8C358.494 2063.12 358.867 2062.46 359.379 2061.82C359.912 2061.18 360.606 2060.66 361.459 2060.28C362.312 2059.87 363.315 2059.67 364.467 2059.67C365.982 2059.67 367.283 2059.99 368.371 2060.63C369.48 2061.25 370.334 2062.14 370.931 2063.29C371.55 2064.42 371.859 2065.75 371.859 2067.29C371.859 2068.97 371.507 2070.43 370.803 2071.67C370.12 2072.89 369.16 2073.84 367.923 2074.52C366.686 2075.18 365.224 2075.51 363.539 2075.51ZM363.443 2071.42C364.638 2071.42 365.555 2071.07 366.195 2070.39C366.856 2069.71 367.187 2068.73 367.187 2067.45C367.187 2066.25 366.888 2065.3 366.291 2064.6C365.694 2063.9 364.808 2063.54 363.635 2063.54C362.846 2063.54 362.152 2063.71 361.555 2064.06C360.979 2064.38 360.531 2064.83 360.211 2065.43C359.912 2066.01 359.763 2066.69 359.763 2067.48C359.763 2068.21 359.902 2068.87 360.179 2069.46C360.478 2070.06 360.904 2070.54 361.459 2070.9C362.014 2071.25 362.675 2071.42 363.443 2071.42ZM378.407 2075C378.407 2072.7 378.705 2070.48 379.303 2068.34C379.921 2066.19 380.796 2064.11 381.927 2062.1C383.057 2060.1 384.412 2058.19 385.991 2056.38H374.791V2052.28H390.535V2056.15C389.233 2057.65 388.113 2059.11 387.175 2060.54C386.257 2061.94 385.5 2063.39 384.903 2064.89C384.305 2066.38 383.868 2067.96 383.591 2069.62C383.313 2071.27 383.175 2073.06 383.175 2075H378.407Z" fill="white"/>
<rect x="138" y="1985" width="4" height="4" fill="white"/>
<rect x="138" y="2093" width="4" height="4" fill="white"/>
<rect x="605" y="2093" width="4" height="4" fill="white"/>
<rect x="605" y="1985" width="4" height="4" fill="white"/>
<rect x="141" y="237" width="146" height="146" fill="black" stroke="white" stroke-width="4"/>
<rect x="141" y="837" width="146" height="146" fill="black" stroke="white" stroke-width="4"/>
<rect x="141" y="1137" width="146" height="146" fill="black" stroke="white" stroke-width="4"/>
<rect x="141" y="537" width="146" height="146" fill="black" stroke="white" stroke-width="4"/>
<rect x="141" y="387" width="146" height="146" fill="black" stroke="white" stroke-width="4"/>
<rect x="141" y="687" width="146" height="146" fill="black" stroke="white" stroke-width="4"/>
<rect x="141" y="987" width="146" height="146" fill="black" stroke="white" stroke-width="4"/>
<rect x="291" y="387" width="146" height="146" fill="black" stroke="white" stroke-width="4"/>
<rect x="291" y="687" width="146" height="146" fill="black" stroke="white" stroke-width="4"/>
<rect x="291" y="987" width="146" height="146" fill="black" stroke="white" stroke-width="4"/>
<rect x="441" y="387" width="146" height="146" fill="black" stroke="white" stroke-width="4"/>
<rect x="441" y="687" width="146" height="146" fill="black" stroke="white" stroke-width="4"/>
<rect x="441" y="987" width="146" height="146" fill="black" stroke="white" stroke-width="4"/>
<rect x="591" y="387" width="146" height="146" fill="black" stroke="white" stroke-width="4"/>
<rect x="591" y="687" width="146" height="146" fill="black" stroke="white" stroke-width="4"/>
<rect x="591" y="987" width="146" height="146" fill="black" stroke="white" stroke-width="4"/>
<rect x="741" y="387" width="146" height="146" fill="black" stroke="white" stroke-width="4"/>
<rect x="741" y="687" width="146" height="146" fill="black" stroke="white" stroke-width="4"/>
<rect x="741" y="987" width="146" height="146" fill="black" stroke="white" stroke-width="4"/>
<rect x="891" y="387" width="146" height="146" fill="black" stroke="white" stroke-width="4"/>
<rect x="891" y="687" width="146" height="146" fill="black" stroke="white" stroke-width="4"/>
<rect x="891" y="987" width="146" height="146" fill="black" stroke="white" stroke-width="4"/>
<rect x="1041" y="387" width="146" height="146" fill="black" stroke="white" stroke-width="4"/>
<rect x="1041" y="687" width="146" height="146" fill="black" stroke="white" stroke-width="4"/>
<rect x="1041" y="987" width="146" height="146" fill="black" stroke="white" stroke-width="4"/>
<rect x="1191" y="387" width="146" height="146" fill="black" stroke="white" stroke-width="4"/>
<rect x="1191" y="687" width="146" height="146" fill="black" stroke="white" stroke-width="4"/>
<rect x="1191" y="987" width="146" height="146" fill="black" stroke="white" stroke-width="4"/>
<rect x="1341" y="387" width="146" height="146" fill="black" stroke="white" stroke-width="4"/>
<rect x="1341" y="687" width="146" height="146" fill="black" stroke="white" stroke-width="4"/>
<rect x="1341" y="987" width="146" height="146" fill="black" stroke="white" stroke-width="4"/>
<rect x="1491" y="387" width="146" height="146" fill="black" stroke="white" stroke-width="4"/>
<rect x="1641" y="387" width="146" height="146" fill="black" stroke="white" stroke-width="4"/>
<rect x="1791" y="387" width="146" height="146" fill="black" stroke="white" stroke-width="4"/>
<rect x="1491" y="687" width="146" height="146" fill="black" stroke="white" stroke-width="4"/>
<rect x="1491" y="987" width="146" height="146" fill="black" stroke="white" stroke-width="4"/>
<rect x="1641" y="687" width="146" height="146" fill="black" stroke="white" stroke-width="4"/>
<rect x="1641" y="987" width="146" height="146" fill="black" stroke="white" stroke-width="4"/>
<rect x="1791" y="687" width="146" height="146" fill="black" stroke="white" stroke-width="4"/>
<rect x="1791" y="987" width="146" height="146" fill="black" stroke="white" stroke-width="4"/>
<rect x="291" y="237" width="146" height="146" fill="black" stroke="white" stroke-width="4"/>
<rect x="291" y="837" width="146" height="146" fill="black" stroke="white" stroke-width="4"/>
<rect x="291" y="1137" width="146" height="146" fill="black" stroke="white" stroke-width="4"/>
<rect x="291" y="537" width="146" height="146" fill="black" stroke="white" stroke-width="4"/>
<rect x="441" y="237" width="146" height="146" fill="black" stroke="white" stroke-width="4"/>
<rect x="441" y="837" width="146" height="146" fill="black" stroke="white" stroke-width="4"/>
<rect x="441" y="1137" width="146" height="146" fill="black" stroke="white" stroke-width="4"/>
<rect x="441" y="537" width="146" height="146" fill="black" stroke="white" stroke-width="4"/>
<rect x="591" y="237" width="146" height="146" fill="black" stroke="white" stroke-width="4"/>
<rect x="591" y="837" width="146" height="146" fill="black" stroke="white" stroke-width="4"/>
<rect x="591" y="1137" width="146" height="146" fill="black" stroke="white" stroke-width="4"/>
<rect x="591" y="537" width="146" height="146" fill="black" stroke="white" stroke-width="4"/>
<rect x="741" y="237" width="146" height="146" fill="black" stroke="white" stroke-width="4"/>
<rect x="741" y="837" width="146" height="146" fill="black" stroke="white" stroke-width="4"/>
<rect x="741" y="1137" width="146" height="146" fill="black" stroke="white" stroke-width="4"/>
<rect x="741" y="537" width="146" height="146" fill="black" stroke="white" stroke-width="4"/>
<rect x="891" y="237" width="146" height="146" fill="black" stroke="white" stroke-width="4"/>
<rect x="891" y="837" width="146" height="146" fill="black" stroke="white" stroke-width="4"/>
<rect x="891" y="1137" width="146" height="146" fill="black" stroke="white" stroke-width="4"/>
<rect x="891" y="537" width="146" height="146" fill="black" stroke="white" stroke-width="4"/>
<rect x="1041" y="237" width="146" height="146" fill="black" stroke="white" stroke-width="4"/>
<rect x="1041" y="837" width="146" height="146" fill="black" stroke="white" stroke-width="4"/>
<rect x="1041" y="1137" width="146" height="146" fill="black" stroke="white" stroke-width="4"/>
<rect x="1041" y="537" width="146" height="146" fill="black" stroke="white" stroke-width="4"/>
<rect x="1191" y="237" width="146" height="146" fill="black" stroke="white" stroke-width="4"/>
<rect x="1191" y="837" width="146" height="146" fill="black" stroke="white" stroke-width="4"/>
<rect x="1191" y="1137" width="146" height="146" fill="black" stroke="white" stroke-width="4"/>
<rect x="1191" y="537" width="146" height="146" fill="black" stroke="white" stroke-width="4"/>
<rect x="1341" y="237" width="146" height="146" fill="black" stroke="white" stroke-width="4"/>
<rect x="1341" y="837" width="146" height="146" fill="black" stroke="white" stroke-width="4"/>
<rect x="1341" y="1137" width="146" height="146" fill="black" stroke="white" stroke-width="4"/>
<rect x="1341" y="537" width="146" height="146" fill="black" stroke="white" stroke-width="4"/>
<rect x="1491" y="237" width="146" height="146" fill="black" stroke="white" stroke-width="4"/>
<rect x="1641" y="237" width="146" height="146" fill="black" stroke="white" stroke-width="4"/>
<rect x="1791" y="237" width="146" height="146" fill="black" stroke="white" stroke-width="4"/>
<rect x="1491" y="837" width="146" height="146" fill="black" stroke="white" stroke-width="4"/>
<rect x="1491" y="1137" width="146" height="146" fill="black" stroke="white" stroke-width="4"/>
<rect x="1641" y="837" width="146" height="146" fill="black" stroke="white" stroke-width="4"/>
<rect x="1641" y="1137" width="146" height="146" fill="black" stroke="white" stroke-width="4"/>
<rect x="1791" y="837" width="146" height="146" fill="black" stroke="white" stroke-width="4"/>
<rect x="1791" y="1137" width="146" height="146" fill="black" stroke="white" stroke-width="4"/>
<rect x="1491" y="537" width="146" height="146" fill="black" stroke="white" stroke-width="4"/>
<rect x="1641" y="537" width="146" height="146" fill="black" stroke="white" stroke-width="4"/>
<rect x="1791" y="537" width="146" height="146" fill="black" stroke="white" stroke-width="4"/>
<rect x="143" y="689" width="549" height="189" fill="#FDC500"/>
<rect x="143" y="989" width="772" height="156" fill="#34312D"/>
<rect x="143" y="389" width="992" height="159" fill="#00509D"/>
</svg>
